# Blender 4.4.1
# www.blender.org
mtllib Annoucment_33.mtl
o Annoucment_33
v -0.500000 -0.000000 -0.400000
v -0.500000 -0.000000 -0.500000
v 0.500000 -0.000000 -0.500000
v 0.500000 -0.000000 -0.400000
v -0.500000 1.000000 -0.500000
v -0.500000 1.000000 -0.400000
v 0.500000 1.000000 -0.500000
v 0.500000 1.000000 -0.400000
vn -0.0000 1.0000 -0.0000
vn -0.0000 -0.0000 1.0000
vn -0.0000 -1.0000 -0.0000
vn 1.0000 -0.0000 -0.0000
vn -1.0000 -0.0000 -0.0000
vn -0.0000 -0.0000 -1.0000
vt 1.000000 0.550000
vt 0.500000 0.600000
vt 0.500000 0.550000
vt 0.000000 1.000000
vt 0.500000 0.500000
vt 0.500000 1.000000
vt 0.600000 0.500000
vt 0.550000 -0.000000
vt 0.600000 -0.000000
vt 0.550000 0.500000
vt 0.500000 -0.000000
vt 0.000000 -0.000000
vt 1.000000 0.600000
vt 0.000000 0.500000
vt 1.000000 0.500000
s 0
usemtl Annoucment_33_Material
f 8/1/1 5/2/1 6/3/1
f 6/4/2 4/5/2 8/6/2
f 3/1/3 1/5/3 2/3/3
f 7/7/4 4/8/4 3/9/4
f 5/10/5 1/11/5 6/5/5
f 2/12/6 7/5/6 3/11/6
f 8/1/1 7/13/1 5/2/1
f 6/4/2 1/14/2 4/5/2
f 3/1/3 4/15/3 1/5/3
f 7/7/4 8/10/4 4/8/4
f 5/10/5 2/8/5 1/11/5
f 2/12/6 5/14/6 7/5/6
