# Blender 4.4.1
# www.blender.org
mtllib control_box_NG_61.mtl
o control_box_NG_61
v -1.700000 -0.000000 1.700000
v 1.700000 -0.000000 1.700000
v -1.700000 -0.000000 -1.700000
v 1.700000 -0.000000 -1.700000
v 1.000000 0.300000 1.100000
v 1.100000 0.300000 1.100000
v 0.100000 0.300000 0.800000
v 0.100000 0.300000 0.300000
v 0.400000 0.300000 0.300000
v 0.600000 0.300000 0.300000
v 0.900000 0.300000 0.300000
v 0.900000 0.300000 -0.200000
v 1.000000 0.300000 -0.200000
v 1.000000 0.300000 -0.300000
v 1.100000 0.300000 -0.300000
v 0.600000 0.300000 -0.300000
v 0.700000 0.300000 -0.600000
v 1.000000 0.300000 -0.600000
v 0.900000 0.300000 -0.700000
v 1.000000 0.300000 -0.700000
v 0.700000 0.300000 -1.100000
v 0.900000 0.300000 -1.100000
v 0.600000 0.300000 -1.100000
v 1.000000 0.300000 1.400000
v 1.400000 0.300000 1.400000
v -1.400000 0.300000 1.400000
v -1.400000 0.300000 -1.400000
v 1.100000 0.300000 -1.400000
v 1.400000 0.300000 -1.400000
v -1.100000 0.500000 1.400000
v 0.400000 0.500000 1.400000
v 0.400000 0.400000 1.400000
v 1.000000 0.400000 1.400000
v -1.400000 0.500000 -0.400000
v 0.600000 0.500000 -1.400000
v 1.100000 0.500000 -1.400000
v -1.100000 0.300000 1.400000
v -1.100000 0.300000 1.300000
v -1.400000 0.300000 0.100000
v -1.100000 0.300000 0.100000
v -1.100000 0.300000 -0.100000
v -1.100000 0.400000 -0.200000
v 0.800000 0.300000 -0.300000
v 0.800000 0.400000 -0.200000
v 0.700000 0.300000 -0.200000
v 0.700000 0.300000 -0.300000
v -1.400000 0.300000 -0.400000
v -1.100000 0.300000 -0.400000
v 0.800000 0.300000 -0.600000
v 0.700000 0.400000 -0.700000
v 0.800000 0.300000 -1.100000
v -1.100000 0.500000 1.300000
v -1.400000 0.500000 0.100000
v -1.100000 0.500000 0.100000
v 0.800000 0.500000 -0.200000
v 0.700000 0.400000 -0.200000
v 0.700000 0.500000 -0.200000
v -1.100000 0.500000 -0.400000
v 0.800000 0.500000 -0.600000
v 0.700000 0.500000 -0.700000
v 0.700000 0.500000 -0.600000
v 0.800000 0.500000 -0.700000
v 0.700000 0.500000 -1.000000
v 0.800000 0.500000 -1.000000
v 0.200000 0.600000 0.500000
v 0.100000 0.600000 0.500000
v 0.100000 0.500000 0.500000
v 0.100000 0.500000 0.600000
v 0.100000 0.600000 0.600000
v 0.200000 0.600000 0.600000
v 1.000000 0.500000 -0.400000
v 1.000000 0.500000 -0.500000
v 0.900000 0.600000 -0.400000
v 1.000000 0.600000 -0.500000
v 1.000000 0.600000 -0.400000
v 0.900000 0.600000 -0.500000
v 0.900000 0.500000 -0.400000
v 0.600000 0.300000 1.100000
v 0.900000 0.300000 1.100000
v 0.600000 0.300000 0.800000
v 0.600000 0.300000 0.600000
v 0.400000 0.300000 0.600000
v 1.100000 0.300000 0.300000
v 1.000000 0.300000 0.300000
v 0.600000 0.300000 -0.600000
v 0.900000 0.300000 -0.600000
v 1.100000 0.300000 -0.600000
v 1.100000 0.300000 -1.100000
v 1.000000 0.300000 -1.100000
v 0.600000 0.300000 -1.400000
v 0.900000 0.500000 1.100000
v 0.200000 0.500000 0.600000
v 0.200000 0.500000 0.500000
v 0.900000 0.500000 0.300000
v 0.600000 0.500000 -0.300000
v 0.700000 0.500000 -0.300000
v 0.800000 0.500000 -0.300000
v 1.000000 0.500000 -0.300000
v 1.100000 0.500000 -0.300000
v 0.600000 0.500000 -0.600000
v 0.900000 0.500000 -0.500000
v 1.000000 0.500000 -0.600000
v 1.100000 0.500000 -0.600000
v 0.600000 0.500000 -1.100000
v 0.700000 0.500000 -1.100000
v 0.800000 0.500000 -1.100000
v 1.100000 0.500000 -1.100000
v -1.700000 0.900000 1.700000
v 1.700000 0.900000 1.700000
v -1.400000 0.900000 1.400000
v 1.400000 0.900000 1.400000
v -1.400000 0.900000 -1.400000
v 1.400000 0.900000 -1.400000
v -1.700000 0.900000 -1.700000
v 1.700000 0.900000 -1.700000
v 1.000000 0.300000 0.200000
v 0.900000 0.300000 0.200000
v 0.900000 0.300000 -0.300000
v 1.000000 0.300000 -1.000000
v 0.900000 0.300000 -1.000000
v 0.400000 0.400000 1.300000
v 0.400000 0.500000 1.300000
v 0.900000 0.500000 1.200000
v 1.000000 0.500000 1.200000
v 0.900000 0.500000 0.200000
v 1.000000 0.500000 0.200000
v 0.900000 0.500000 -0.300000
v 0.900000 0.500000 -0.200000
v 1.000000 0.500000 -0.200000
v 0.900000 0.500000 -0.600000
v 0.900000 0.500000 -0.700000
v 1.000000 0.500000 -0.700000
v 1.000000 0.500000 -1.100000
v 0.900000 0.500000 -1.100000
v 0.900000 0.500000 -1.000000
v 1.000000 0.500000 -1.000000
v 0.900000 0.400000 1.300000
v 1.000000 0.400000 1.200000
v 0.900000 0.300000 1.300000
v 0.900000 0.400000 1.200000
v -1.100000 0.300000 -0.200000
v -1.100000 0.400000 -0.100000
v 0.800000 0.400000 -0.100000
v 0.800000 0.300000 -0.100000
v 0.800000 0.400000 -0.700000
v 0.800000 0.400000 -1.000000
v 0.700000 0.400000 -1.000000
v 0.600000 0.500000 1.100000
v 1.100000 0.500000 1.100000
v 1.000000 0.500000 1.100000
v 0.100000 0.500000 0.800000
v 0.600000 0.500000 0.800000
v 0.400000 0.500000 0.600000
v 0.600000 0.500000 0.600000
v 0.100000 0.500000 0.300000
v 0.400000 0.500000 0.300000
v 0.600000 0.500000 0.300000
v 1.000000 0.500000 0.300000
v 1.100000 0.500000 0.300000
vn 1.0000 -0.0000 -0.0000
vn -0.0000 -0.0000 1.0000
vn -1.0000 -0.0000 -0.0000
vn -0.0000 -0.0000 -1.0000
vn -0.0000 1.0000 -0.0000
vn -0.0000 -1.0000 -0.0000
vt 0.809524 0.476190
vt 0.845238 0.500000
vt 0.809524 0.500000
vt 0.392857 0.833333
vt 0.380952 0.845238
vt 0.380952 0.833333
vt 0.845238 0.297619
vt 0.833333 0.309524
vt 0.833333 0.297619
vt 0.833333 0.559524
vt 0.809524 0.547619
vt 0.845238 0.547619
vt 0.738095 0.904762
vt 0.404762 0.976190
vt 0.738095 0.976190
vt 0.833333 0.214286
vt 0.797619 0.190476
vt 0.797619 0.214286
vt 0.404762 0.547619
vt 0.809524 0.440476
vt 0.404762 0.440476
vt 0.857143 0.119048
vt 0.797619 0.119048
vt 0.845238 0.130952
vt 0.857143 0.142857
vt 0.797619 0.166667
vt 0.797619 0.142857
vt 0.845238 0.380952
vt 0.809524 0.404762
vt 0.809524 0.380952
vt 0.845238 0.642857
vt 0.833333 0.619048
vt 0.845238 0.619048
vt 0.845238 0.190476
vt 0.833333 0.190476
vt 0.404762 0.654762
vt 0.809524 0.761905
vt 0.404762 0.761905
vt 0.833333 0.666667
vt 0.821429 0.642857
vt 0.833333 0.642857
vt 0.773810 0.309524
vt 0.738095 0.250000
vt 0.773810 0.250000
vt 0.833333 0.702381
vt 0.821429 0.678571
vt 0.821429 0.702381
vt 0.988095 0.833333
vt 0.892857 0.785714
vt 0.952381 0.785714
vt 0.369048 0.845238
vt 0.369048 0.833333
vt 0.845238 0.452381
vt 0.809524 0.452381
vt 0.785714 0.154762
vt 0.785714 0.166667
vt 0.773810 0.166667
vt 0.000000 0.404762
vt 0.404762 0.000000
vt 0.000000 0.000000
vt 0.845238 0.523810
vt 0.809524 0.523810
vt 0.357143 0.833333
vt 0.345238 0.845238
vt 0.345238 0.833333
vt 0.404762 0.833333
vt 0.392857 0.845238
vt 0.654762 0.833333
vt 0.833333 0.857143
vt 0.833333 0.845238
vt 0.857143 0.166667
vt 0.845238 0.166667
vt 0.154762 0.904762
vt 0.214286 0.904762
vt 0.000000 0.952381
vt 0.821429 0.666667
vt 0.845238 0.261905
vt 0.857143 0.238095
vt 0.845238 0.238095
vt 0.845238 0.428571
vt 0.809524 0.428571
vt 0.404762 0.809524
vt 0.392857 0.809524
vt 0.809524 0.273810
vt 0.833333 0.250000
vt 0.797619 0.273810
vt 0.857143 0.285714
vt 0.857143 0.261905
vt 0.345238 0.821429
vt 0.333333 0.809524
vt 0.821429 0.761905
vt 0.833333 0.750000
vt 0.821429 0.750000
vt 0.809524 0.214286
vt 0.821429 0.226190
vt 0.821429 0.214286
vt 0.809524 0.333333
vt 0.404762 0.333333
vt 0.845238 0.750000
vt 0.833333 0.726190
vt 0.845238 0.726190
vt 0.845238 0.214286
vt 0.880952 0.869048
vt 0.869048 0.869048
vt 0.654762 0.857143
vt 0.833333 0.892857
vt 0.654762 0.904762
vt 0.654762 0.892857
vt 0.833333 0.571429
vt 0.821429 0.595238
vt 0.821429 0.583333
vt 0.821429 0.607143
vt 0.833333 0.595238
vt 0.809524 0.750000
vt 0.654762 0.880952
vt 0.869048 0.892857
vt 0.869048 0.880952
vt 0.821429 0.726190
vt 0.809524 0.726190
vt 0.333333 0.833333
vt 0.833333 0.261905
vt 0.833333 0.238095
vt 0.857143 0.190476
vt 0.000000 0.880952
vt 0.333333 0.880952
vt 0.214286 0.833333
vt 0.809524 0.309524
vt 0.797619 0.333333
vt 0.797619 0.321429
vt 0.809524 0.702381
vt 0.845238 0.285714
vt 0.833333 0.285714
vt 0.809524 0.297619
vt 0.702381 0.130952
vt 0.738095 0.000000
vt 0.702381 0.202381
vt 0.773810 0.130952
vt 0.785714 0.130952
vt 0.773810 0.142857
vt 0.809524 0.642857
vt 0.809524 0.619048
vt 0.797619 0.226190
vt 0.738095 0.226190
vt 0.833333 0.226190
vt 0.773810 0.071429
vt 0.738095 0.107143
vt 0.750000 0.083333
vt 0.440476 0.785714
vt 0.642857 0.773810
vt 0.642857 0.809524
vt 0.833333 0.166667
vt 0.845238 0.595238
vt 0.654762 0.869048
vt 0.821429 0.738095
vt 0.845238 0.666667
vt 0.809524 0.678571
vt 0.845238 0.571429
vt 0.845238 0.678571
vt 0.833333 0.678571
vt 0.845238 0.357143
vt 0.809524 0.357143
vt 0.845238 0.702381
vt 0.857143 0.214286
vt 0.369048 0.440476
vt 0.404762 0.404762
vt 0.845238 0.309524
vt 0.035714 0.773810
vt 0.000000 0.809524
vt 0.035714 0.440476
vt 0.738095 0.190476
vt 0.750000 0.190476
vt 0.845238 0.476190
vt 0.809524 0.559524
vt 0.404762 0.904762
vt 0.809524 0.142857
vt 0.809524 0.130952
vt 0.845238 0.142857
vt 0.845238 0.404762
vt 0.809524 0.654762
vt 0.738095 0.309524
vt 0.654762 0.761905
vt 0.892857 0.761905
vt 0.952381 0.761905
vt 0.988095 0.761905
vt 0.738095 0.166667
vt 0.738095 0.130952
vt 0.750000 0.130952
vt 0.750000 0.119048
vt 0.761905 0.119048
vt 0.761905 0.130952
vt 0.750000 0.166667
vt 0.761905 0.178571
vt 0.750000 0.178571
vt 0.761905 0.166667
vt 0.773810 0.154762
vt 0.785714 0.178571
vt 0.773810 0.178571
vt 0.785714 0.142857
vt 0.797619 0.130952
vt 0.357143 0.845238
vt 0.404762 0.845238
vt 0.892857 0.845238
vt 0.892857 0.833333
vt 0.214286 0.880952
vt 0.333333 0.952381
vt 0.154762 0.880952
vt 0.833333 0.273810
vt 0.773810 0.273810
vt 0.797619 0.285714
vt 0.809524 0.285714
vt 0.380952 0.821429
vt 0.833333 0.761905
vt 0.809524 0.226190
vt 0.880952 0.857143
vt 0.833333 0.904762
vt 0.809524 0.583333
vt 0.809524 0.571429
vt 0.809524 0.595238
vt 0.809524 0.607143
vt 0.821429 0.619048
vt 0.333333 0.845238
vt 0.035714 0.809524
vt 0.285714 0.809524
vt 0.285714 0.821429
vt 0.214286 0.821429
vt 0.035714 0.833333
vt 0.738095 0.321429
vt 0.773810 0.285714
vt 0.797619 0.297619
vt 0.440476 0.154762
vt 0.404762 0.154762
vt 0.440476 0.000000
vt 0.440476 0.011905
vt 0.678571 0.011905
vt 0.678571 0.035714
vt 0.642857 0.035714
vt 0.642857 0.071429
vt 0.583333 0.071429
vt 0.666667 0.178571
vt 0.440476 0.178571
vt 0.678571 0.202381
vt 0.666667 0.202381
vt 0.678571 0.190476
vt 0.690476 0.190476
vt 0.583333 0.130952
vt 0.619048 0.130952
vt 0.619048 0.095238
vt 0.642857 0.095238
vt 0.642857 0.130952
vt 0.678571 0.130952
vt 0.678571 0.142857
vt 0.690476 0.142857
vt 0.690476 0.130952
vt 0.690476 0.202381
vt 0.690476 0.250000
vt 0.690476 0.238095
vt 0.702381 0.238095
vt 0.666667 0.238095
vt 0.678571 0.238095
vt 0.678571 0.250000
vt 0.678571 0.297619
vt 0.666667 0.297619
vt 0.678571 0.285714
vt 0.702381 0.297619
vt 0.690476 0.297619
vt 0.690476 0.285714
vt 0.738095 0.333333
vt 0.702381 0.333333
vt 0.690476 0.035714
vt 0.690476 0.000000
vt 0.702381 0.035714
vt 0.773810 0.119048
vt 0.785714 0.119048
vt 0.845238 0.107143
vt 0.845238 0.119048
vt 0.833333 0.119048
vt 0.833333 0.107143
vt 0.797619 0.107143
vt 0.797619 0.071429
vt 0.857143 0.011905
vt 0.857143 0.107143
vt 0.833333 0.000000
vt 0.845238 0.000000
vt 0.845238 0.011905
vt 0.773810 0.107143
vt 0.833333 0.011905
vt 0.797619 0.047619
vt 0.797619 0.011905
vt 0.738095 0.071429
vt 0.738095 0.047619
vt 0.750000 0.071429
vt 0.738095 0.083333
vt 0.642857 0.904762
vt 0.404762 0.785714
vt 0.440476 0.761905
vt 0.654762 0.809524
vt 0.642857 0.869048
vt 0.654762 0.773810
vt 0.880952 0.880952
vt 0.845238 0.333333
vt 0.369048 0.773810
vt 0.773810 0.190476
vt 0.785714 0.190476
vt 0.761905 0.190476
s 0
usemtl control_box_NG_61_Material
f 15/1/1 103/2/1 99/3/1
f 71/4/2 73/5/2 77/6/2
f 44/7/2 57/8/2 56/9/2
f 138/10/1 24/11/1 5/12/1
f 29/13/3 111/14/3 113/15/3
f 94/16/4 10/17/4 157/18/4
f 114/19/4 4/20/4 3/21/4
f 21/22/3 17/23/3 147/24/3
f 80/25/2 151/26/2 7/27/2
f 9/28/1 153/29/1 82/30/1
f 98/31/1 13/32/1 14/33/1
f 158/16/4 83/34/4 84/35/4
f 2/36/1 115/37/1 109/38/1
f 105/39/2 23/40/2 21/41/2
f 58/42/5 53/43/5 54/44/5
f 52/45/3 37/46/3 30/47/3
f 113/48/2 35/49/2 36/50/2
f 75/6/5 76/51/5 73/52/5
f 95/1/3 85/53/3 16/54/3
f 72/55/5 102/56/5 130/57/5
f 3/58/6 2/59/6 1/60/6
f 35/61/3 23/3/3 104/62/3
f 146/63/2 63/64/2 147/65/2
f 138/66/2 123/67/2 140/4/2
f 38/68/4 122/69/4 121/70/4
f 135/34/3 22/71/3 120/72/3
f 53/73/1 34/74/1 110/75/1
f 72/39/1 75/46/1 71/76/1
f 131/77/4 20/78/4 19/79/4
f 157/80/3 81/29/3 154/81/3
f 59/4/4 86/82/4 49/83/4
f 67/84/3 8/85/3 68/86/3
f 107/11/1 28/61/1 36/12/1
f 136/87/2 120/77/2 119/88/2
f 145/89/1 49/90/1 51/83/1
f 73/91/3 101/92/3 77/93/3
f 67/94/4 65/95/4 93/96/4
f 2/97/2 108/21/2 1/98/2
f 133/99/1 119/100/1 89/101/1
f 99/79/2 14/16/2 15/102/2
f 44/103/5 56/104/5 142/105/5
f 31/106/5 52/107/5 30/108/5
f 134/100/2 51/47/2 22/45/2
f 43/109/1 55/110/1 44/111/1
f 140/112/3 91/32/3 79/113/3
f 92/16/2 69/95/2 68/96/2
f 70/93/5 66/37/5 69/114/5
f 141/115/4 56/116/4 45/117/4
f 100/114/4 17/118/4 85/119/4
f 50/120/4 62/64/4 145/65/4
f 102/121/4 87/79/4 18/122/4
f 125/102/4 116/123/4 117/34/4
f 110/124/4 111/125/4 31/126/4
f 33/127/5 140/128/5 137/129/5
f 156/53/4 8/81/4 155/54/4
f 127/118/2 43/130/2 118/47/2
f 121/131/1 31/9/1 32/132/1
f 42/133/1 58/8/1 54/42/1
f 83/134/5 25/135/5 15/136/5
f 127/137/5 98/138/5 77/139/5
f 153/140/4 81/32/4 82/141/4
f 93/94/1 70/142/1 92/18/1
f 159/85/1 6/143/1 83/144/1
f 153/145/5 155/146/5 93/147/5
f 48/148/5 16/149/5 85/150/5
f 146/46/5 50/140/5 145/40/5
f 91/35/2 78/26/2 79/151/2
f 94/32/3 117/152/3 11/113/3
f 108/36/3 3/11/3 1/19/3
f 101/63/4 74/51/4 72/52/4
f 144/103/2 142/115/2 41/153/2
f 46/100/3 56/154/3 57/93/3
f 150/35/2 6/72/2 149/34/2
f 127/155/3 12/41/3 128/39/3
f 96/47/2 16/156/2 46/46/2
f 126/152/1 84/109/1 116/157/1
f 130/45/3 19/158/3 86/159/3
f 58/160/4 47/97/4 34/161/4
f 132/101/1 18/45/1 20/162/1
f 129/78/2 12/102/2 13/163/2
f 148/30/3 80/160/3 78/161/3
f 111/164/5 109/165/5 115/82/5
f 40/166/2 53/97/2 39/127/2
f 112/167/5 114/168/5 110/169/5
f 36/142/5 104/170/5 105/171/5
f 107/131/2 89/121/2 88/77/2
f 15/1/1 87/172/1 103/2/1
f 71/4/2 75/67/2 73/5/2
f 44/7/2 55/166/2 57/8/2
f 5/12/1 150/157/1 124/109/1
f 138/10/1 33/173/1 24/11/1
f 5/12/1 124/109/1 138/10/1
f 29/13/3 25/174/3 111/14/3
f 94/16/4 11/35/4 10/17/4
f 114/19/4 115/11/4 4/20/4
f 17/23/3 61/27/3 60/175/3
f 17/23/3 60/175/3 50/176/3
f 63/177/3 105/25/3 21/22/3
f 17/23/3 50/176/3 147/24/3
f 147/24/3 63/177/3 21/22/3
f 80/25/2 152/71/2 151/26/2
f 9/28/1 156/178/1 153/29/1
f 98/31/1 129/41/1 13/32/1
f 158/16/4 159/102/4 83/34/4
f 2/36/1 4/179/1 115/37/1
f 105/39/2 104/76/2 23/40/2
f 58/42/5 34/180/5 53/43/5
f 52/45/3 38/159/3 37/46/3
f 113/48/2 112/68/2 27/181/2
f 27/181/2 90/182/2 35/49/2
f 36/50/2 28/183/2 29/184/2
f 113/48/2 27/181/2 35/49/2
f 36/50/2 29/184/2 113/48/2
f 75/6/5 74/5/5 76/51/5
f 95/1/3 100/172/3 85/53/3
f 100/185/5 95/186/5 96/187/5
f 96/187/5 57/188/5 55/189/5
f 97/190/5 127/137/5 77/139/5
f 96/187/5 55/189/5 97/190/5
f 61/191/5 100/185/5 96/187/5
f 62/192/5 60/193/5 61/191/5
f 59/194/5 62/192/5 61/191/5
f 61/191/5 96/187/5 97/190/5
f 97/190/5 77/139/5 101/195/5
f 61/191/5 97/190/5 101/195/5
f 59/194/5 61/191/5 101/195/5
f 59/194/5 101/195/5 72/55/5
f 132/196/5 131/197/5 130/57/5
f 130/57/5 59/194/5 72/55/5
f 71/198/5 98/138/5 99/199/5
f 72/55/5 71/198/5 99/199/5
f 99/199/5 103/26/5 102/56/5
f 102/56/5 132/196/5 130/57/5
f 72/55/5 99/199/5 102/56/5
f 3/58/6 4/165/6 2/59/6
f 35/61/3 90/2/3 23/3/3
f 146/63/2 64/200/2 63/64/2
f 138/66/2 124/201/2 123/67/2
f 137/202/4 139/203/4 38/68/4
f 38/68/4 52/105/4 122/69/4
f 121/70/4 137/202/4 38/68/4
f 135/34/3 134/123/3 22/71/3
f 34/74/1 47/204/1 27/125/1
f 27/125/1 112/205/1 110/75/1
f 110/75/1 26/124/1 39/206/1
f 110/75/1 39/206/1 53/73/1
f 34/74/1 27/125/1 110/75/1
f 72/39/1 74/159/1 75/46/1
f 131/77/4 132/88/4 20/78/4
f 157/80/3 10/178/3 81/29/3
f 59/4/4 130/66/4 86/82/4
f 67/84/3 155/207/3 8/85/3
f 8/85/3 7/44/3 151/208/3
f 68/86/3 69/209/3 66/210/3
f 8/85/3 151/208/3 68/86/3
f 68/86/3 66/210/3 67/84/3
f 107/11/1 88/62/1 28/61/1
f 136/87/2 135/131/2 120/77/2
f 51/83/1 106/4/1 64/6/1
f 51/83/1 64/6/1 146/211/1
f 62/65/1 59/120/1 49/90/1
f 51/83/1 146/211/1 145/89/1
f 145/89/1 62/65/1 49/90/1
f 73/91/3 76/212/3 101/92/3
f 67/94/4 66/213/4 65/95/4
f 2/97/2 109/20/2 108/21/2
f 133/99/1 136/92/1 119/100/1
f 99/79/2 98/122/2 14/16/2
f 142/105/5 143/214/5 44/103/5
f 56/104/5 42/153/5 142/105/5
f 31/106/5 122/215/5 52/107/5
f 134/100/2 106/118/2 51/47/2
f 143/216/1 144/217/1 43/109/1
f 43/109/1 97/113/1 55/110/1
f 44/111/1 143/216/1 43/109/1
f 79/113/3 139/218/3 137/219/3
f 140/112/3 123/220/3 91/32/3
f 79/113/3 137/219/3 140/112/3
f 92/16/2 70/144/2 69/95/2
f 70/93/5 65/91/5 66/37/5
f 141/115/4 42/108/4 56/116/4
f 100/114/4 61/93/4 17/118/4
f 50/120/4 60/221/4 62/64/4
f 102/121/4 103/77/4 87/79/4
f 125/102/4 126/163/4 116/123/4
f 37/222/4 26/168/4 110/124/4
f 111/125/4 25/90/4 24/223/4
f 33/224/4 32/225/4 31/126/4
f 111/125/4 24/223/4 33/224/4
f 30/226/4 37/222/4 110/124/4
f 111/125/4 33/224/4 31/126/4
f 31/126/4 30/226/4 110/124/4
f 121/227/5 32/180/5 33/127/5
f 33/127/5 138/97/5 140/128/5
f 137/129/5 121/227/5 33/127/5
f 156/53/4 9/80/4 8/81/4
f 127/118/2 97/119/2 43/130/2
f 121/131/1 122/7/1 31/9/1
f 54/42/1 40/228/1 41/209/1
f 54/42/1 41/209/1 142/229/1
f 141/210/1 48/132/1 58/8/1
f 54/42/1 142/229/1 42/133/1
f 42/133/1 141/210/1 58/8/1
f 40/230/5 39/231/5 26/59/5
f 26/59/5 37/232/5 38/233/5
f 38/233/5 139/234/5 79/235/5
f 78/236/5 80/237/5 7/238/5
f 38/233/5 79/235/5 78/236/5
f 40/230/5 26/59/5 38/233/5
f 144/239/5 41/240/5 40/230/5
f 118/241/5 43/242/5 144/239/5
f 12/243/5 118/241/5 144/239/5
f 40/230/5 38/233/5 78/236/5
f 40/230/5 78/236/5 7/238/5
f 13/244/5 12/243/5 144/239/5
f 40/230/5 7/238/5 8/245/5
f 9/246/5 82/247/5 81/248/5
f 40/230/5 8/245/5 9/246/5
f 144/239/5 40/230/5 9/246/5
f 9/246/5 81/248/5 10/249/5
f 10/249/5 11/250/5 117/251/5
f 116/252/5 84/253/5 83/134/5
f 9/246/5 10/249/5 117/251/5
f 144/239/5 9/246/5 117/251/5
f 15/136/5 14/254/5 13/244/5
f 13/244/5 144/239/5 117/251/5
f 13/244/5 117/251/5 116/252/5
f 15/136/5 13/244/5 116/252/5
f 15/136/5 116/252/5 83/134/5
f 20/255/5 18/256/5 87/257/5
f 49/258/5 86/259/5 19/260/5
f 22/261/5 51/262/5 49/258/5
f 120/263/5 22/261/5 49/258/5
f 120/263/5 49/258/5 19/260/5
f 88/264/5 89/265/5 119/266/5
f 119/266/5 120/263/5 19/260/5
f 119/266/5 19/260/5 20/255/5
f 29/267/5 28/268/5 88/264/5
f 88/264/5 119/266/5 20/255/5
f 88/264/5 20/255/5 87/257/5
f 25/135/5 29/267/5 88/264/5
f 5/269/5 24/270/5 25/135/5
f 6/271/5 5/269/5 25/135/5
f 25/135/5 88/264/5 87/257/5
f 25/135/5 87/257/5 15/136/5
f 83/134/5 6/271/5 25/135/5
f 127/137/5 128/272/5 129/273/5
f 98/138/5 71/198/5 77/139/5
f 127/137/5 129/273/5 98/138/5
f 153/140/4 154/41/4 81/32/4
f 93/94/1 65/213/1 70/142/1
f 159/85/1 149/43/1 6/143/1
f 158/274/5 126/275/5 125/276/5
f 94/277/5 157/278/5 154/279/5
f 158/274/5 125/276/5 94/277/5
f 149/280/5 159/281/5 158/274/5
f 123/282/5 124/283/5 150/284/5
f 150/284/5 149/280/5 158/274/5
f 158/274/5 94/277/5 154/279/5
f 153/145/5 156/285/5 155/146/5
f 150/284/5 158/274/5 154/279/5
f 150/284/5 154/279/5 153/145/5
f 91/286/5 123/282/5 150/284/5
f 152/287/5 148/288/5 91/286/5
f 68/289/5 151/290/5 152/287/5
f 92/291/5 68/289/5 152/287/5
f 152/287/5 91/286/5 150/284/5
f 152/287/5 150/284/5 153/145/5
f 93/147/5 92/291/5 152/287/5
f 155/146/5 67/292/5 93/147/5
f 93/147/5 152/287/5 153/145/5
f 90/293/5 27/174/5 47/294/5
f 48/148/5 141/295/5 45/181/5
f 90/293/5 47/294/5 48/148/5
f 17/296/5 21/153/5 23/297/5
f 23/297/5 90/293/5 48/148/5
f 45/181/5 46/298/5 16/149/5
f 85/150/5 17/296/5 23/297/5
f 48/148/5 45/181/5 16/149/5
f 85/150/5 23/297/5 48/148/5
f 146/46/5 147/156/5 50/140/5
f 91/35/2 148/17/2 78/26/2
f 94/32/3 125/33/3 117/152/3
f 108/36/3 114/179/3 3/11/3
f 101/63/4 76/200/4 74/51/4
f 144/103/2 143/299/2 142/115/2
f 57/93/3 96/92/3 46/100/3
f 46/100/3 45/118/3 56/154/3
f 150/35/2 5/151/2 6/72/2
f 127/155/3 118/31/3 12/41/3
f 96/47/2 95/130/2 16/156/2
f 126/152/1 158/113/1 84/109/1
f 130/45/3 131/162/3 19/158/3
f 58/160/4 48/300/4 47/97/4
f 132/101/1 102/100/1 18/45/1
f 129/78/2 128/79/2 12/102/2
f 148/30/3 152/28/3 80/160/3
f 111/164/5 110/169/5 108/58/5
f 115/82/5 114/168/5 113/301/5
f 111/164/5 108/58/5 109/165/5
f 115/82/5 113/301/5 111/164/5
f 40/166/2 54/300/2 53/97/2
f 112/167/5 113/301/5 114/168/5
f 114/168/5 108/58/5 110/169/5
f 134/302/5 135/197/5 136/196/5
f 133/303/5 107/17/5 36/142/5
f 134/302/5 136/196/5 133/303/5
f 63/193/5 64/192/5 106/304/5
f 134/302/5 133/303/5 36/142/5
f 105/171/5 63/193/5 106/304/5
f 106/304/5 134/302/5 36/142/5
f 36/142/5 35/143/5 104/170/5
f 105/171/5 106/304/5 36/142/5
f 107/131/2 133/132/2 89/121/2
