# Blender 4.4.1
# www.blender.org
mtllib RanaadAke_89.mtl
o RanaadAke_89
v -0.300000 -0.000000 0.400000
v -0.200000 0.100000 0.400000
v -0.200000 -0.000000 0.400000
v 0.300000 -0.000000 0.400000
v 0.400000 -0.000000 0.400000
v -0.200000 0.100000 0.000000
v -0.300000 -0.000000 0.000000
v -0.200000 -0.000000 0.000000
v 0.300000 0.100000 0.000000
v 0.300000 -0.000000 0.000000
v 0.400000 -0.000000 0.000000
v -0.400000 0.100000 0.400000
v -0.400000 0.200000 0.400000
v -0.300000 0.100000 0.400000
v -0.200000 0.200000 0.400000
v -0.200000 0.200000 0.300000
v 0.300000 0.100000 0.400000
v 0.300000 0.200000 0.400000
v 0.400000 0.100000 0.400000
v 0.500000 0.200000 0.400000
v 0.500000 0.100000 0.400000
v -0.300000 0.100000 0.000000
v -0.400000 0.200000 0.000000
v -0.400000 0.100000 0.000000
v -0.200000 0.200000 0.000000
v -0.200000 0.200000 0.100000
v 0.500000 0.100000 0.000000
v 0.400000 0.100000 0.000000
v -0.200000 0.300000 0.400000
v 0.300000 0.200000 0.300000
v 0.300000 0.300000 0.300000
v 0.300000 0.300000 0.400000
v -0.200000 0.300000 0.100000
v -0.200000 0.300000 0.000000
v 0.300000 0.300000 0.000000
v 0.300000 0.200000 0.000000
v 0.300000 0.200000 0.100000
v 0.300000 0.300000 0.100000
v -0.200000 0.100000 -0.100000
v -0.200000 -0.000000 -0.100000
v 0.300000 0.100000 -0.100000
v 0.300000 -0.000000 -0.100000
v -0.200000 -0.000000 -0.400000
v -0.200000 0.100000 -0.400000
v 0.300000 0.100000 -0.400000
v 0.300000 -0.000000 -0.400000
v -0.500000 0.300000 0.400000
v -0.500000 0.200000 0.400000
v 0.600000 0.300000 0.400000
v 0.600000 0.200000 0.400000
v -0.500000 0.200000 0.000000
v -0.500000 0.300000 0.000000
v 0.600000 0.200000 0.000000
v 0.600000 0.300000 0.000000
v 0.500000 0.200000 0.000000
v -0.200000 0.300000 0.300000
vn -0.0000 -0.0000 1.0000
vn -1.0000 -0.0000 -0.0000
vn -0.0000 -0.0000 -1.0000
vn -0.0000 -1.0000 -0.0000
vn 1.0000 -0.0000 -0.0000
vn -0.0000 1.0000 -0.0000
vt 0.444444 0.333333
vt 0.444444 0.277778
vt 0.555556 0.333333
vt 0.500000 0.888889
vt 0.277778 0.833333
vt 0.277778 0.888889
vt 0.555556 0.777778
vt 0.833333 0.722222
vt 0.555556 0.722222
vt 0.722222 0.222222
vt 0.777778 0.000000
vt 0.722222 0.000000
vt 0.000000 0.888889
vt 0.000000 0.833333
vt 0.888889 0.888889
vt 0.722222 0.833333
vt 0.722222 0.888889
vt 0.888889 0.555556
vt 0.833333 0.611111
vt 0.833333 0.555556
vt 0.833333 0.444444
vt 0.611111 0.500000
vt 0.611111 0.444444
vt 0.166667 0.055556
vt 0.166667 0.166667
vt 0.000000 0.000000
vt 0.277778 0.777778
vt 0.277778 0.722222
vt 0.833333 0.222222
vt 0.888889 0.000000
vt 0.833333 0.000000
vt 0.833333 0.666667
vt 0.888889 0.611111
vt 0.833333 0.777778
vt 0.555556 0.833333
vt 0.833333 0.277778
vt 0.611111 0.222222
vt 0.611111 0.277778
vt 0.555556 0.555556
vt 0.833333 0.333333
vt 0.611111 0.388889
vt 0.611111 0.333333
vt 0.000000 0.555556
vt 0.277778 0.555556
vt 0.777778 0.222222
vt 0.611111 0.555556
vt 0.555556 0.500000
vt 0.444444 0.444444
vt 0.888889 0.500000
vt 0.833333 0.500000
vt 0.888889 0.444444
vt 0.000000 0.777778
vt 0.888889 0.222222
vt 0.666667 0.222222
vt 0.666667 0.000000
vt 0.500000 0.833333
vt 0.166667 0.888889
vt 0.000000 0.944444
vt 0.611111 0.000000
vt 0.166667 0.333333
vt 0.166667 0.388889
vt 0.000000 0.388889
vt 0.000000 0.333333
vt 0.055556 0.333333
vt 0.055556 0.277778
vt 0.111111 0.277778
vt 0.111111 0.222222
vt 0.166667 0.222222
vt 0.166667 0.277778
vt 0.444444 0.222222
vt 0.500000 0.222222
vt 0.500000 0.277778
vt 0.555556 0.277778
vt 0.444444 0.388889
vt 0.888889 0.833333
vt 0.444444 0.055556
vt 0.444444 0.000000
vt 0.444444 0.166667
vt 0.000000 0.222222
vt 0.166667 0.000000
vt 0.888889 0.666667
vt 0.833333 0.833333
vt 0.833333 0.388889
vt 0.000000 0.500000
vt 0.166667 0.555556
vt 0.055556 0.500000
vt 0.111111 0.444444
vt 0.055556 0.444444
vt 0.111111 0.388889
vt 0.166667 0.444444
vt 0.166667 0.500000
vt 0.444444 0.500000
vt 0.444444 0.555556
vt 0.500000 0.388889
vt 0.555556 0.444444
vt 0.500000 0.444444
vt 0.166667 0.944444
s 0
usemtl RanaadAke_89_Material
f 18/1/1 17/2/1 20/3/1
f 52/4/2 48/5/2 47/6/2
f 44/7/3 46/8/3 43/9/3
f 10/10/4 5/11/4 4/12/4
f 33/13/3 37/5/3 26/14/3
f 44/15/2 40/16/2 39/17/2
f 25/18/5 33/19/5 26/20/5
f 11/21/5 19/22/5 5/23/5
f 56/24/6 33/25/6 47/26/6
f 18/9/6 16/27/6 15/28/6
f 28/29/4 21/30/4 19/31/4
f 38/32/2 36/33/2 37/19/2
f 30/34/1 56/35/1 16/7/1
f 23/36/2 12/37/2 13/38/2
f 46/8/4 40/39/4 43/9/4
f 8/40/5 2/41/5 3/42/5
f 2/43/4 9/27/4 17/44/4
f 24/45/4 14/31/4 12/11/4
f 54/46/3 55/47/3 9/48/3
f 32/20/2 30/49/2 18/50/2
f 16/51/5 29/50/5 15/21/5
f 37/27/6 25/14/6 26/52/6
f 42/7/1 39/5/1 40/27/1
f 27/36/5 20/42/5 21/38/5
f 51/21/4 13/53/4 48/29/4
f 7/54/4 3/12/4 1/55/4
f 41/39/6 44/28/6 39/44/6
f 53/16/5 49/4/5 50/56/5
f 46/57/5 41/58/5 42/13/5
f 22/21/2 1/41/2 14/23/2
f 9/20/2 4/22/2 17/46/2
f 55/37/4 50/55/4 20/59/4
f 15/60/1 29/61/1 47/62/1
f 47/62/1 48/63/1 13/64/1
f 13/64/1 12/65/1 14/66/1
f 14/66/1 1/67/1 3/68/1
f 14/66/1 3/68/1 2/69/1
f 15/60/1 47/62/1 13/64/1
f 13/64/1 14/66/1 2/69/1
f 17/2/1 4/70/1 5/71/1
f 13/64/1 2/69/1 17/2/1
f 15/60/1 13/64/1 17/2/1
f 17/2/1 5/71/1 19/72/1
f 19/72/1 21/73/1 20/3/1
f 20/3/1 50/42/1 49/41/1
f 49/41/1 32/74/1 18/1/1
f 18/1/1 15/60/1 17/2/1
f 17/2/1 19/72/1 20/3/1
f 20/3/1 49/41/1 18/1/1
f 52/4/2 51/56/2 48/5/2
f 44/7/3 45/34/3 46/8/3
f 10/10/4 11/45/4 5/11/4
f 33/13/3 38/6/3 37/5/3
f 44/15/2 43/75/2 40/16/2
f 25/18/5 34/33/5 33/19/5
f 11/21/5 28/50/5 19/22/5
f 31/76/6 32/77/6 49/59/6
f 49/59/6 54/37/6 35/70/6
f 49/59/6 35/70/6 38/78/6
f 31/76/6 49/59/6 38/78/6
f 33/25/6 34/68/6 52/79/6
f 31/76/6 38/78/6 33/25/6
f 47/26/6 29/80/6 56/24/6
f 56/24/6 31/76/6 33/25/6
f 33/25/6 52/79/6 47/26/6
f 18/9/6 30/7/6 16/27/6
f 28/29/4 27/53/4 21/30/4
f 38/32/2 35/81/2 36/33/2
f 30/34/1 31/82/1 56/35/1
f 23/36/2 24/29/2 12/37/2
f 46/8/4 42/20/4 40/39/4
f 8/40/5 6/83/5 2/41/5
f 2/43/4 6/52/4 9/27/4
f 24/45/4 22/29/4 14/31/4
f 51/84/3 52/43/3 34/85/3
f 23/86/3 51/84/3 34/85/3
f 22/87/3 24/88/3 23/86/3
f 8/61/3 7/89/3 22/87/3
f 6/90/3 8/61/3 22/87/3
f 22/87/3 23/86/3 34/85/3
f 22/87/3 34/85/3 25/91/3
f 6/90/3 22/87/3 25/91/3
f 36/92/3 35/93/3 54/46/3
f 6/90/3 25/91/3 36/92/3
f 11/94/3 10/74/3 9/48/3
f 9/48/3 6/90/3 36/92/3
f 54/46/3 53/22/3 55/47/3
f 55/47/3 27/95/3 28/96/3
f 28/96/3 11/94/3 9/48/3
f 9/48/3 36/92/3 54/46/3
f 55/47/3 28/96/3 9/48/3
f 32/20/2 31/18/2 30/49/2
f 16/51/5 56/49/5 29/50/5
f 37/27/6 36/5/6 25/14/6
f 42/7/1 41/35/1 39/5/1
f 27/36/5 55/40/5 20/42/5
f 51/21/4 23/51/4 13/53/4
f 7/54/4 8/10/4 3/12/4
f 41/39/6 45/9/6 44/28/6
f 53/16/5 54/17/5 49/4/5
f 46/57/5 45/97/5 41/58/5
f 22/21/2 7/83/2 1/41/2
f 9/20/2 10/50/2 4/22/2
f 55/37/4 53/54/4 50/55/4
