# Blender 4.4.1
# www.blender.org
mtllib Chair_17.mtl
o Chair_17
v -0.500000 -0.000000 0.300000
v -0.500000 -0.000000 0.400000
v -0.300000 -0.000000 0.400000
v -0.400000 -0.000000 0.300000
v 0.300000 -0.000000 0.400000
v 0.400000 -0.000000 0.300000
v 0.500000 -0.000000 0.400000
v 0.500000 -0.000000 0.300000
v -0.400000 -0.000000 0.200000
v -0.400000 0.100000 0.200000
v -0.300000 -0.000000 0.200000
v 0.400000 -0.000000 0.200000
v 0.300000 -0.000000 0.200000
v -0.400000 -0.000000 -0.300000
v -0.300000 -0.000000 -0.300000
v 0.400000 -0.000000 -0.400000
v 0.400000 -0.000000 -0.300000
v 0.300000 -0.000000 -0.300000
v -0.500000 -0.000000 -0.500000
v -0.500000 -0.000000 -0.400000
v -0.400000 -0.000000 -0.400000
v -0.300000 -0.000000 -0.500000
v 0.300000 -0.000000 -0.500000
v 0.500000 -0.000000 -0.400000
v 0.500000 -0.000000 -0.500000
v -0.300000 0.100000 0.200000
v -0.300000 0.200000 0.200000
v 0.300000 0.100000 0.200000
v 0.300000 0.200000 0.200000
v 0.400000 0.100000 0.200000
v -0.300000 0.200000 -0.300000
v -0.300000 0.100000 -0.300000
v -0.400000 0.100000 -0.300000
v 0.400000 0.100000 -0.300000
v 0.300000 0.200000 -0.300000
v 0.300000 0.100000 -0.300000
v -0.400000 0.200000 0.200000
v 0.400000 0.200000 0.200000
v -0.400000 0.200000 -0.300000
v 0.400000 0.200000 -0.300000
v -0.300000 0.400000 -0.500000
v -0.300000 0.400000 -0.400000
v -0.400000 0.500000 0.200000
v -0.300000 0.500000 -0.300000
v 0.300000 0.400000 -0.400000
v 0.300000 0.400000 -0.500000
v -0.400000 0.600000 0.300000
v -0.500000 0.600000 0.300000
v -0.300000 0.500000 0.400000
v 0.300000 0.500000 0.400000
v -0.300000 0.600000 0.200000
v -0.300000 0.500000 0.200000
v 0.300000 0.500000 0.200000
v 0.400000 0.500000 0.200000
v 0.400000 0.500000 -0.300000
v -0.400000 0.500000 -0.300000
v -0.400000 0.600000 -0.400000
v 0.400000 0.600000 -0.400000
v 0.300000 0.500000 -0.300000
v -0.300000 0.600000 -0.400000
v -0.500000 0.600000 0.500000
v -0.500000 0.600000 0.400000
v -0.500000 0.700000 0.500000
v 0.500000 0.700000 0.500000
v 0.500000 0.600000 0.500000
v 0.500000 0.600000 0.400000
v -0.400000 0.700000 0.200000
v 0.500000 0.600000 0.300000
v 0.400000 0.700000 0.200000
v 0.400000 0.600000 0.300000
v -0.500000 0.700000 0.100000
v -0.400000 0.700000 0.100000
v 0.300000 0.600000 0.200000
v 0.500000 0.700000 0.100000
v 0.400000 0.700000 0.100000
v -0.500000 0.700000 -0.300000
v -0.400000 0.700000 -0.300000
v 0.400000 0.700000 -0.300000
v -0.200000 0.700000 -0.400000
v -0.100000 0.700000 -0.400000
v 0.300000 0.600000 -0.400000
v 0.500000 0.600000 -0.400000
v -0.500000 0.600000 -0.400000
v -0.400000 0.700000 -0.500000
v -0.200000 0.700000 -0.500000
v -0.100000 0.700000 -0.500000
v 0.100000 0.700000 -0.500000
v 0.200000 0.700000 -0.500000
v 0.200000 0.700000 -0.400000
v -0.500000 0.700000 0.200000
v 0.500000 0.700000 0.200000
v 0.500000 0.700000 -0.300000
v 0.100000 0.700000 -0.400000
v 0.400000 0.700000 -0.500000
v -0.500000 0.900000 0.100000
v 0.500000 0.900000 0.200000
v 0.400000 0.900000 0.200000
v -0.400000 0.900000 -0.300000
v 0.500000 0.900000 -0.300000
v -0.400000 1.000000 0.400000
v -0.500000 0.900000 0.400000
v -0.500000 1.000000 0.400000
v -0.400000 0.900000 0.400000
v 0.500000 1.000000 0.400000
v 0.400000 1.000000 0.400000
v 0.400000 0.900000 0.400000
v 0.500000 0.900000 0.400000
v -0.400000 0.900000 0.200000
v -0.500000 0.900000 0.200000
v 0.400000 0.900000 0.100000
v -0.400000 0.900000 0.100000
v 0.500000 0.900000 0.100000
v -0.400000 1.000000 -0.300000
v 0.500000 1.000000 -0.300000
v 0.400000 1.000000 -0.300000
v -0.500000 0.900000 -0.300000
v -0.500000 1.000000 -0.300000
v 0.400000 0.900000 -0.300000
v 0.100000 1.000000 -0.500000
v -0.400000 1.100000 -0.500000
v -0.200000 1.100000 -0.500000
v 0.100000 1.100000 -0.500000
v 0.100000 1.100000 -0.400000
v 0.400000 1.100000 -0.500000
v -0.400000 1.100000 -0.400000
v -0.200000 1.100000 -0.400000
v -0.100000 1.100000 -0.500000
v -0.100000 1.100000 -0.400000
v 0.200000 1.100000 -0.500000
v 0.200000 1.100000 -0.400000
v 0.400000 1.100000 -0.400000
v 0.400000 1.300000 -0.400000
v -0.400000 1.300000 -0.500000
v -0.400000 1.300000 -0.400000
v 0.100000 1.300000 -0.500000
v -0.400000 1.400000 -0.300000
v -0.500000 1.400000 -0.300000
v 0.400000 1.400000 -0.300000
v 0.500000 1.400000 -0.300000
v -0.400000 1.400000 -0.500000
v -0.500000 1.400000 -0.500000
v 0.400000 1.400000 -0.500000
v 0.400000 1.300000 -0.500000
v 0.500000 1.400000 -0.500000
vn -1.0000 -0.0000 -0.0000
vn -0.0000 -1.0000 -0.0000
vn 1.0000 -0.0000 -0.0000
vn -0.0000 -0.0000 1.0000
vn -0.0000 -0.0000 -1.0000
vn -0.0000 1.0000 -0.0000
vt 0.166667 0.805556
vt 0.194444 0.944444
vt 0.166667 0.777778
vt 0.916667 0.472222
vt 0.888889 0.444444
vt 0.888889 0.500000
vt 0.361111 0.250000
vt 0.388889 0.250000
vt 0.500000 0.277778
vt 0.944444 0.750000
vt 0.972222 0.722222
vt 0.944444 0.777778
vt 0.000000 0.944444
vt 0.027778 0.833333
vt 0.027778 0.805556
vt 0.944444 0.444444
vt 0.972222 0.388889
vt 0.972222 0.444444
vt 0.222222 0.916667
vt 0.250000 0.777778
vt 0.222222 0.777778
vt 0.722222 0.888889
vt 0.444444 0.916667
vt 0.444444 0.888889
vt 0.750000 0.083333
vt 0.750000 0.055556
vt 0.777778 0.111111
vt 0.972222 0.250000
vt 1.000000 0.166667
vt 1.000000 0.250000
vt 0.944444 0.611111
vt 0.972222 0.555556
vt 0.972222 0.611111
vt 0.277778 0.916667
vt 0.250000 0.916667
vt 0.916667 0.611111
vt 0.916667 0.500000
vt 0.916667 0.388889
vt 0.916667 0.444444
vt 0.194444 0.777778
vt 0.944444 0.277778
vt 0.972222 0.166667
vt 0.944444 0.166667
vt 0.972222 0.305556
vt 1.000000 0.305556
vt 0.333333 0.972222
vt 0.277778 0.944444
vt 0.277778 0.972222
vt 0.972222 0.083333
vt 1.000000 0.083333
vt 0.222222 0.500000
vt 0.083333 0.583333
vt 0.111111 0.583333
vt 0.611111 0.416667
vt 0.611111 0.444444
vt 0.555556 0.388889
vt 0.444444 0.972222
vt 0.388889 0.944444
vt 0.388889 0.972222
vt 0.888889 0.305556
vt 0.916667 0.166667
vt 0.888889 0.166667
vt 0.222222 0.972222
vt 0.944444 0.388889
vt 0.972222 0.277778
vt 0.916667 0.277778
vt 0.333333 0.944444
vt 0.722222 0.916667
vt 0.444444 0.944444
vt 0.722222 0.944444
vt 0.944444 0.888889
vt 0.972222 0.972222
vt 0.972222 0.888889
vt 0.111111 0.250000
vt 0.111111 0.194444
vt 0.083333 0.194444
vt 0.861111 0.555556
vt 0.833333 0.361111
vt 0.861111 0.361111
vt 0.861111 0.638889
vt 0.888889 0.638889
vt 0.305556 0.611111
vt 0.305556 0.500000
vt 0.833333 0.722222
vt 0.833333 0.555556
vt 0.888889 0.333333
vt 0.861111 0.166667
vt 0.861111 0.333333
vt 0.277778 0.888889
vt 0.555556 0.944444
vt 0.527778 0.972222
vt 0.527778 0.944444
vt 0.805556 0.555556
vt 0.805556 0.722222
vt 0.777778 0.888889
vt 0.805556 0.777778
vt 0.805556 0.861111
vt 0.388889 0.194444
vt 0.361111 0.194444
vt 0.305556 0.166667
vt 0.194444 0.694444
vt 0.166667 0.694444
vt 0.166667 0.750000
vt 0.916667 0.972222
vt 0.944444 0.916667
vt 0.916667 0.916667
vt 0.750000 0.277778
vt 0.777778 0.305556
vt 0.805556 0.194444
vt 0.916667 0.305556
vt 0.500000 0.944444
vt 0.472222 0.972222
vt 0.472222 0.944444
vt 0.916667 0.694444
vt 0.888889 0.666667
vt 0.805556 0.166667
vt 0.972222 0.000000
vt 0.805556 0.000000
vt 0.555556 0.833333
vt 0.277778 0.833333
vt 0.500000 0.805556
vt 0.888889 0.972222
vt 0.888889 0.916667
vt 0.833333 0.166667
vt 0.194444 1.000000
vt 0.166667 0.944444
vt 0.944444 0.583333
vt 0.027778 0.694444
vt 0.027778 0.583333
vt 0.000000 0.388889
vt 0.861111 0.916667
vt 0.000000 0.972222
vt 0.805556 0.361111
vt 0.194444 0.916667
vt 0.277778 0.388889
vt 0.250000 0.166667
vt 0.222222 0.194444
vt 0.750000 0.583333
vt 0.750000 0.611111
vt 0.777778 0.722222
vt 0.500000 0.833333
vt 0.527778 0.861111
vt 0.611111 0.611111
vt 0.555556 0.694444
vt 0.611111 0.694444
vt 0.888889 0.611111
vt 0.916667 0.638889
vt 1.000000 0.000000
vt 0.944444 0.638889
vt 0.472222 0.861111
vt 0.500000 0.888889
vt 0.750000 0.444444
vt 0.777778 0.500000
vt 0.750000 0.527778
vt 0.888889 0.944444
vt 0.500000 0.972222
vt 0.611111 0.833333
vt 0.166667 0.833333
vt 0.166667 0.916667
vt 0.944444 0.500000
vt 0.944444 0.472222
vt 0.305556 0.277778
vt 0.305556 0.250000
vt 0.944444 0.722222
vt 0.944444 0.861111
vt 0.805556 0.750000
vt 0.027778 0.777778
vt 0.000000 0.777778
vt 0.027778 0.916667
vt 0.555556 0.083333
vt 0.555556 0.055556
vt 0.611111 0.055556
vt 0.611111 -0.000000
vt 0.638889 -0.000000
vt 0.750000 0.194444
vt 0.777778 0.166667
vt 0.805556 0.111111
vt 0.638889 0.055556
vt 0.750000 -0.000000
vt 0.944444 0.555556
vt 0.277778 0.777778
vt 0.222222 0.388889
vt 0.055556 0.500000
vt 0.083333 0.694444
vt 0.027778 0.750000
vt 0.250000 0.750000
vt 0.250000 0.694444
vt 0.250000 0.583333
vt 0.166667 0.583333
vt 0.166667 0.666667
vt 0.194444 0.583333
vt 0.111111 0.694444
vt 0.750000 0.416667
vt 0.611111 0.527778
vt 0.555556 0.527778
vt 0.611111 0.388889
vt 0.250000 0.972222
vt 0.944444 0.972222
vt 0.055556 0.166667
vt 0.055556 0.000000
vt 0.027778 0.000000
vt 0.027778 0.166667
vt 0.000000 0.166667
vt 0.000000 0.194444
vt 0.222222 0.277778
vt 0.027778 0.250000
vt 0.027778 0.277778
vt 0.083333 0.250000
vt 0.222222 0.250000
vt 0.861111 0.500000
vt 0.277778 0.472222
vt 0.555556 0.472222
vt 0.527778 0.472222
vt 0.527778 0.500000
vt 0.555556 0.500000
vt 0.555556 0.611111
vt 0.527778 0.611111
vt 0.527778 0.666667
vt 0.472222 0.666667
vt 0.472222 0.638889
vt 0.444444 0.638889
vt 0.444444 0.666667
vt 0.388889 0.666667
vt 0.388889 0.638889
vt 0.361111 0.638889
vt 0.361111 0.666667
vt 0.305556 0.666667
vt 0.305556 0.472222
vt 0.277778 0.611111
vt 0.277778 0.500000
vt 0.861111 0.722222
vt 0.555556 0.972222
vt 0.527778 0.000000
vt 0.555556 0.000000
vt 0.500000 0.388889
vt 0.500000 0.250000
vt 0.527778 0.166667
vt 0.305556 0.000000
vt 0.333333 0.000000
vt 0.333333 0.166667
vt 0.500000 0.194444
vt 0.277778 0.194444
vt 0.277778 0.166667
vt 0.611111 0.250000
vt 0.555556 0.250000
vt 0.555556 0.277778
vt 0.638889 0.194444
vt 0.611111 0.194444
vt 0.638889 0.250000
vt 0.750000 0.250000
vt 0.750000 0.388889
vt 0.805556 0.388889
vt 0.777778 0.361111
vt 0.805556 0.305556
vt 0.861111 0.666667
vt 0.861111 0.694444
vt 0.500000 0.666667
vt 0.555556 0.666667
vt 0.277778 0.666667
vt 0.333333 0.666667
vt 0.333333 0.805556
vt 0.166667 1.000000
vt 0.444444 0.833333
vt 0.055556 0.388889
vt 0.166667 0.972222
vt 0.194444 0.972222
vt 0.277778 0.000000
vt 0.250000 0.000000
vt 0.777778 0.666667
vt 0.805556 0.666667
vt 0.750000 0.555556
vt 0.611111 0.583333
vt 0.611111 0.555556
vt 0.555556 0.555556
vt 0.611111 0.722222
vt 0.750000 0.694444
vt 0.527778 0.888889
vt 0.555556 0.861111
vt 0.444444 0.861111
vt 0.472222 0.888889
vt 0.805556 0.500000
vt 0.777778 0.555556
vt 0.694444 0.833333
vt 0.694444 0.722222
vt 0.722222 0.722222
vt 0.722222 0.833333
vt 0.777778 0.833333
vt 0.638889 0.722222
vt 0.638889 0.833333
vt 0.555556 0.888889
s 0
usemtl Chair_17_Material
f 33/1/1 57/2/1 14/3/1
f 16/4/2 18/5/2 23/6/2
f 96/7/3 112/8/3 114/9/3
f 34/10/3 16/11/3 40/12/3
f 47/13/1 37/14/1 10/15/1
f 116/16/4 77/17/4 98/18/4
f 36/19/2 30/20/2 28/21/2
f 65/22/4 63/23/4 61/24/4
f 113/25/3 98/26/3 125/27/3
f 59/28/4 40/29/4 55/30/4
f 118/31/4 92/32/4 99/33/4
f 44/34/2 43/20/2 56/35/2
f 127/36/3 80/6/3 86/37/3
f 111/16/5 71/38/5 95/39/5
f 40/19/6 29/40/6 38/21/6
f 116/41/2 111/42/2 95/43/2
f 142/44/6 139/30/6 144/45/6
f 121/46/2 125/47/2 120/48/2
f 44/29/4 39/49/4 31/50/4
f 46/51/5 85/52/5 86/53/5
f 26/54/3 27/55/3 3/56/3
f 124/57/2 130/58/2 129/59/2
f 33/60/2 26/61/2 10/62/2
f 110/63/5 74/35/5 75/19/5
f 118/64/2 112/65/2 110/41/2
f 88/41/3 130/38/3 89/66/3
f 122/59/2 128/67/2 127/46/2
f 65/68/2 62/69/2 66/70/2
f 37/71/5 52/72/5 27/73/5
f 95/74/1 71/75/1 90/76/1
f 114/77/6 105/78/6 104/79/6
f 39/80/6 27/6/6 31/81/6
f 64/56/6 77/82/6 72/83/6
f 70/84/5 8/77/5 6/85/5
f 57/86/4 20/87/4 21/62/4
f 82/6/4 16/88/4 24/86/4
f 53/69/2 49/89/2 52/47/2
f 107/90/4 105/91/4 106/92/4
f 47/84/5 1/93/5 48/94/5
f 70/95/3 38/96/3 54/97/3
f 74/98/3 91/99/3 66/100/3
f 129/101/5 122/102/5 135/103/5
f 97/104/2 107/105/2 106/106/2
f 115/107/1 131/108/1 94/109/1
f 53/60/2 55/39/2 54/110/2
f 17/111/4 36/112/4 18/113/4
f 139/11/4 115/31/4 114/33/4
f 22/114/2 14/81/2 21/115/2
f 60/116/2 73/117/2 51/118/2
f 66/119/4 62/120/4 50/121/4
f 109/122/2 103/106/2 101/123/2
f 102/124/6 113/79/6 117/78/6
f 140/125/6 137/126/6 136/2/6
f 42/120/4 81/24/4 60/89/4
f 119/127/1 93/37/1 122/31/1
f 120/128/5 84/129/5 19/130/5
f 136/32/4 117/16/4 113/18/4
f 143/105/6 135/131/6 134/22/6
f 126/66/1 85/43/1 79/61/1
f 51/132/5 53/126/5 52/13/5
f 58/93/2 68/78/2 70/133/2
f 108/63/4 90/134/4 67/19/4
f 141/135/1 83/136/1 76/137/1
f 36/138/1 35/139/1 81/140/1
f 5/141/2 6/142/2 7/119/2
f 29/143/1 50/144/1 53/145/1
f 9/146/5 26/147/5 11/36/5
f 96/48/4 69/35/4 91/34/4
f 53/49/5 38/148/5 29/117/5
f 13/36/5 30/149/5 12/31/5
f 4/150/2 11/151/2 3/141/2
f 31/152/3 42/153/3 44/154/3
f 15/113/4 33/57/4 14/69/4
f 46/155/2 42/68/2 41/70/2
f 103/92/4 102/156/4 101/111/4
f 132/95/4 125/119/4 126/157/4
f 83/133/2 47/124/2 48/116/2
f 39/158/1 56/159/1 57/2/1
f 57/2/1 21/40/1 14/3/1
f 33/1/1 39/158/1 57/2/1
f 23/6/2 25/160/2 24/161/2
f 16/4/2 17/39/2 18/5/2
f 23/6/2 24/161/2 16/4/2
f 114/9/3 104/162/3 107/163/3
f 96/7/3 74/98/3 112/8/3
f 114/9/3 107/163/3 96/7/3
f 34/10/3 17/164/3 16/11/3
f 16/11/3 58/73/3 55/165/3
f 40/12/3 38/96/3 30/166/3
f 16/11/3 55/165/3 40/12/3
f 40/12/3 30/166/3 34/10/3
f 9/167/1 4/168/1 47/13/1
f 47/13/1 57/2/1 56/159/1
f 47/13/1 56/159/1 43/169/1
f 10/15/1 9/167/1 47/13/1
f 39/158/1 33/1/1 10/15/1
f 47/13/1 43/169/1 37/14/1
f 37/14/1 39/158/1 10/15/1
f 116/16/4 76/64/4 77/17/4
f 36/19/2 34/35/2 30/20/2
f 65/22/4 64/68/4 63/23/4
f 113/25/3 100/170/3 103/171/3
f 108/172/3 67/173/3 72/174/3
f 113/25/3 103/171/3 108/172/3
f 133/116/3 140/109/3 136/175/3
f 134/176/3 133/116/3 136/175/3
f 134/176/3 136/175/3 113/25/3
f 84/118/3 120/177/3 125/27/3
f 125/27/3 134/176/3 113/25/3
f 108/172/3 72/174/3 111/178/3
f 98/26/3 77/179/3 84/118/3
f 113/25/3 108/172/3 111/178/3
f 98/26/3 84/118/3 125/27/3
f 113/25/3 111/178/3 98/26/3
f 59/28/4 35/42/4 40/29/4
f 118/31/4 78/180/4 92/32/4
f 44/34/2 52/181/2 43/20/2
f 127/36/3 128/146/3 80/6/3
f 111/16/5 72/64/5 71/38/5
f 40/19/6 35/134/6 29/40/6
f 116/41/2 98/65/2 111/42/2
f 142/44/6 138/28/6 139/30/6
f 121/46/2 126/67/2 125/47/2
f 44/29/4 56/42/4 39/49/4
f 25/135/5 23/182/5 46/51/5
f 46/51/5 41/183/5 85/52/5
f 121/184/5 120/128/5 133/185/5
f 142/20/5 144/181/5 25/135/5
f 143/186/5 142/20/5 25/135/5
f 124/187/5 143/186/5 25/135/5
f 94/188/5 124/187/5 25/135/5
f 94/188/5 25/135/5 46/51/5
f 87/189/5 119/190/5 88/191/5
f 88/191/5 94/188/5 46/51/5
f 121/184/5 133/185/5 135/103/5
f 121/184/5 135/103/5 127/192/5
f 87/189/5 88/191/5 46/51/5
f 121/184/5 127/192/5 86/53/5
f 86/53/5 87/189/5 46/51/5
f 85/52/5 121/184/5 86/53/5
f 26/54/3 32/193/3 31/152/3
f 27/55/3 52/194/3 49/195/3
f 26/54/3 31/152/3 27/55/3
f 3/56/3 11/196/3 26/54/3
f 27/55/3 49/195/3 3/56/3
f 124/57/2 131/69/2 130/58/2
f 33/60/2 32/110/2 26/61/2
f 110/63/5 112/197/5 74/35/5
f 118/64/2 99/17/2 112/65/2
f 88/41/3 129/64/3 130/38/3
f 122/59/2 123/58/2 128/67/2
f 65/68/2 61/23/2 62/69/2
f 37/71/5 43/198/5 52/72/5
f 71/75/1 83/136/1 48/199/1
f 48/199/1 1/200/1 2/201/1
f 62/202/1 61/203/1 63/204/1
f 48/199/1 2/201/1 62/202/1
f 117/205/1 137/182/1 141/135/1
f 101/206/1 102/207/1 117/205/1
f 109/208/1 101/206/1 117/205/1
f 117/205/1 141/135/1 116/209/1
f 117/205/1 116/209/1 95/74/1
f 62/202/1 63/204/1 90/76/1
f 71/75/1 48/199/1 62/202/1
f 109/208/1 117/205/1 95/74/1
f 71/75/1 62/202/1 90/76/1
f 90/76/1 109/208/1 95/74/1
f 114/77/6 115/85/6 105/78/6
f 39/80/6 37/210/6 27/6/6
f 90/211/6 63/135/6 64/56/6
f 64/56/6 91/212/6 69/213/6
f 75/214/6 74/215/6 92/216/6
f 75/214/6 92/216/6 78/217/6
f 78/217/6 94/218/6 88/219/6
f 78/217/6 88/219/6 89/220/6
f 75/214/6 78/217/6 89/220/6
f 93/221/6 87/222/6 86/223/6
f 75/214/6 89/220/6 93/221/6
f 69/213/6 75/214/6 93/221/6
f 93/221/6 86/223/6 80/224/6
f 79/225/6 85/226/6 84/227/6
f 69/213/6 93/221/6 80/224/6
f 79/225/6 84/227/6 77/82/6
f 69/213/6 80/224/6 79/225/6
f 67/228/6 90/211/6 64/56/6
f 76/229/6 71/230/6 72/83/6
f 72/83/6 67/228/6 64/56/6
f 64/56/6 69/213/6 79/225/6
f 77/82/6 76/229/6 72/83/6
f 64/56/6 79/225/6 77/82/6
f 70/84/5 68/231/5 8/77/5
f 57/86/4 83/88/4 20/87/4
f 82/6/4 58/210/4 16/88/4
f 53/69/2 50/24/2 49/89/2
f 107/90/4 104/232/4 105/91/4
f 47/84/5 4/85/5 1/93/5
f 55/165/3 58/73/3 70/95/3
f 70/95/3 6/140/3 12/94/3
f 70/95/3 12/94/3 30/166/3
f 54/97/3 55/165/3 70/95/3
f 70/95/3 30/166/3 38/96/3
f 24/233/3 25/234/3 144/56/3
f 144/56/3 139/235/3 114/9/3
f 114/9/3 112/8/3 99/236/3
f 144/56/3 114/9/3 99/236/3
f 82/237/3 24/233/3 144/56/3
f 7/238/3 8/239/3 68/240/3
f 82/237/3 144/56/3 99/236/3
f 82/237/3 99/236/3 92/241/3
f 66/100/3 7/238/3 68/240/3
f 68/240/3 82/237/3 92/241/3
f 74/98/3 96/7/3 91/99/3
f 68/240/3 92/241/3 74/98/3
f 64/242/3 65/243/3 66/100/3
f 66/100/3 68/240/3 74/98/3
f 91/99/3 64/242/3 66/100/3
f 135/103/5 143/186/5 124/187/5
f 129/101/5 88/191/5 119/190/5
f 135/103/5 124/187/5 129/101/5
f 122/102/5 127/192/5 135/103/5
f 129/101/5 119/190/5 122/102/5
f 97/104/2 96/198/2 107/105/2
f 97/244/1 106/245/1 105/246/1
f 97/244/1 105/246/1 115/107/1
f 75/247/1 69/248/1 97/244/1
f 110/249/1 75/247/1 97/244/1
f 110/249/1 97/244/1 115/107/1
f 94/109/1 78/175/1 118/250/1
f 118/250/1 110/249/1 115/107/1
f 138/251/1 142/252/1 143/133/1
f 138/251/1 143/133/1 132/253/1
f 94/109/1 118/250/1 115/107/1
f 115/107/1 138/251/1 132/253/1
f 131/108/1 124/254/1 94/109/1
f 115/107/1 132/253/1 131/108/1
f 53/60/2 59/5/2 55/39/2
f 17/111/4 34/156/4 36/112/4
f 139/11/4 138/164/4 115/31/4
f 20/255/2 19/256/2 22/114/2
f 22/114/2 15/147/2 14/81/2
f 21/115/2 20/255/2 22/114/2
f 60/116/2 81/42/2 73/117/2
f 5/257/4 7/258/4 66/119/4
f 62/120/4 2/259/4 3/260/4
f 62/120/4 3/260/4 49/261/4
f 50/121/4 5/257/4 66/119/4
f 62/120/4 49/261/4 50/121/4
f 109/122/2 108/104/2 103/106/2
f 102/124/6 100/87/6 113/79/6
f 140/125/6 141/262/6 137/126/6
f 42/120/4 45/263/4 81/24/4
f 119/127/1 87/160/1 93/37/1
f 93/37/1 123/36/1 122/31/1
f 19/130/5 141/168/5 140/167/5
f 19/130/5 140/167/5 133/185/5
f 41/183/5 22/264/5 19/130/5
f 84/129/5 85/52/5 41/183/5
f 19/130/5 133/185/5 120/128/5
f 84/129/5 41/183/5 19/130/5
f 136/32/4 137/180/4 117/16/4
f 134/22/6 132/71/6 143/105/6
f 135/131/6 133/68/6 134/22/6
f 126/66/1 121/41/1 85/43/1
f 51/132/5 73/265/5 53/126/5
f 58/93/2 82/85/2 68/78/2
f 108/63/4 109/266/4 90/134/4
f 76/137/1 116/209/1 141/135/1
f 141/135/1 19/267/1 20/268/1
f 83/136/1 71/75/1 76/137/1
f 141/135/1 20/268/1 83/136/1
f 45/269/1 46/270/1 23/93/1
f 23/93/1 18/271/1 36/138/1
f 28/272/1 13/273/1 5/274/1
f 45/269/1 23/93/1 36/138/1
f 28/272/1 5/274/1 29/143/1
f 81/140/1 45/269/1 36/138/1
f 53/145/1 73/275/1 81/140/1
f 59/276/1 53/145/1 81/140/1
f 36/138/1 28/272/1 29/143/1
f 35/139/1 59/276/1 81/140/1
f 36/138/1 29/143/1 35/139/1
f 5/141/2 13/151/2 12/277/2
f 6/142/2 8/278/2 7/119/2
f 5/141/2 12/277/2 6/142/2
f 29/143/1 5/274/1 50/144/1
f 9/146/5 10/81/5 26/147/5
f 96/48/4 97/197/4 69/35/4
f 53/49/5 54/50/5 38/148/5
f 13/36/5 28/147/5 30/149/5
f 3/141/2 2/263/2 1/279/2
f 4/150/2 9/280/2 11/151/2
f 3/141/2 1/279/2 4/150/2
f 32/193/3 15/251/3 22/252/3
f 22/252/3 41/281/3 42/153/3
f 60/282/3 51/273/3 52/194/3
f 60/282/3 52/194/3 44/154/3
f 32/193/3 22/252/3 42/153/3
f 42/153/3 60/282/3 44/154/3
f 31/152/3 32/193/3 42/153/3
f 15/113/4 32/112/4 33/57/4
f 46/155/2 45/123/2 42/68/2
f 103/92/4 100/91/4 102/156/4
f 123/283/4 93/284/4 89/285/4
f 130/286/4 131/287/4 132/95/4
f 123/283/4 89/285/4 130/286/4
f 79/275/4 80/288/4 128/289/4
f 123/283/4 130/286/4 132/95/4
f 126/157/4 79/275/4 128/289/4
f 128/289/4 123/283/4 132/95/4
f 132/95/4 134/290/4 125/119/4
f 126/157/4 128/289/4 132/95/4
f 83/133/2 57/78/2 47/124/2
