# Blender 4.4.1
# www.blender.org
mtllib Teacher Chair_94.mtl
o Teacher_Chair_94
v -0.300000 -0.000000 0.200000
v -0.200000 -0.000000 0.300000
v -0.300000 -0.000000 0.300000
v -0.200000 -0.000000 0.200000
v 0.200000 -0.000000 0.200000
v 0.100000 -0.000000 0.300000
v 0.100000 -0.000000 0.200000
v 0.200000 -0.000000 0.300000
v -0.300000 -0.000000 -0.200000
v -0.300000 -0.000000 -0.100000
v -0.200000 0.100000 -0.100000
v -0.200000 -0.000000 -0.100000
v -0.200000 -0.000000 -0.200000
v 0.200000 -0.000000 -0.200000
v 0.100000 -0.000000 -0.100000
v 0.100000 -0.000000 -0.200000
v 0.200000 -0.000000 -0.100000
v -0.200000 0.100000 0.200000
v -0.300000 0.200000 0.200000
v -0.300000 0.200000 0.300000
v -0.200000 0.200000 0.300000
v 0.100000 0.200000 0.300000
v 0.200000 0.200000 0.200000
v 0.200000 0.200000 0.300000
v -0.100000 0.100000 0.100000
v -0.200000 0.200000 0.100000
v -0.100000 0.200000 0.200000
v -0.200000 0.200000 0.200000
v -0.100000 0.100000 0.200000
v -0.200000 0.100000 0.100000
v 0.100000 0.100000 0.200000
v 0.100000 0.200000 0.200000
v 0.100000 0.100000 0.100000
v 0.100000 0.200000 0.100000
v 0.000000 0.200000 0.200000
v 0.000000 0.100000 0.100000
v 0.000000 0.100000 0.200000
v -0.100000 0.100000 0.000000
v -0.100000 0.200000 0.100000
v 0.000000 0.200000 0.100000
v -0.100000 0.200000 -0.100000
v -0.200000 0.200000 -0.100000
v -0.200000 0.200000 0.000000
v -0.200000 0.100000 0.000000
v -0.100000 0.100000 -0.100000
v 0.100000 0.200000 -0.100000
v 0.000000 0.200000 -0.100000
v 0.000000 0.100000 0.000000
v 0.000000 0.200000 0.000000
v 0.100000 0.200000 0.000000
v 0.100000 0.100000 0.000000
v 0.000000 0.100000 -0.100000
v -0.200000 0.200000 -0.200000
v -0.300000 0.200000 -0.200000
v -0.300000 0.200000 -0.100000
v 0.200000 0.200000 -0.200000
v 0.200000 0.200000 -0.100000
v 0.100000 0.200000 -0.200000
v 0.100000 0.100000 -0.100000
v -0.100000 0.200000 0.000000
v 0.000000 0.600000 0.100000
v -0.100000 0.600000 0.100000
v -0.100000 0.600000 0.000000
v -0.300000 0.700000 0.000000
v 0.000000 0.600000 0.000000
v -0.300000 0.700000 0.300000
v -0.300000 0.600000 0.300000
v 0.200000 0.700000 0.300000
v 0.200000 0.600000 0.300000
v -0.300000 0.600000 -0.200000
v 0.200000 0.600000 -0.200000
v 0.200000 0.700000 -0.200000
v -0.400000 0.700000 0.100000
v -0.300000 0.700000 0.100000
v -0.400000 0.700000 0.000000
v 0.300000 0.700000 0.000000
v 0.200000 0.700000 0.000000
v 0.200000 0.700000 0.100000
v 0.300000 0.700000 0.100000
v -0.300000 0.700000 -0.200000
v -0.300000 0.700000 -0.300000
v 0.200000 0.700000 -0.300000
v -0.300000 0.900000 -0.300000
v -0.400000 1.000000 0.100000
v -0.300000 1.000000 0.100000
v 0.200000 1.000000 0.100000
v 0.300000 1.000000 0.100000
v -0.300000 0.900000 0.000000
v -0.400000 0.900000 0.000000
v 0.300000 0.900000 0.000000
v 0.200000 0.900000 0.000000
v -0.300000 0.900000 -0.200000
v 0.200000 1.000000 -0.200000
v 0.200000 0.900000 -0.200000
v -0.400000 1.000000 -0.300000
v -0.300000 1.000000 -0.200000
v -0.400000 0.900000 -0.300000
v 0.300000 1.000000 -0.300000
v 0.200000 1.000000 -0.300000
v 0.200000 0.900000 -0.300000
v 0.300000 0.900000 -0.300000
v -0.300000 1.000000 -0.300000
v -0.300000 1.200000 -0.300000
v -0.300000 1.200000 -0.200000
v -0.200000 1.200000 -0.200000
v 0.200000 1.200000 -0.300000
v 0.200000 1.200000 -0.200000
v -0.200000 1.300000 -0.300000
v -0.200000 1.200000 -0.300000
v -0.200000 1.300000 -0.200000
v 0.100000 1.200000 -0.300000
v 0.100000 1.200000 -0.200000
v -0.300000 1.300000 -0.300000
v -0.300000 1.300000 -0.200000
v 0.100000 1.300000 -0.200000
v 0.100000 1.300000 -0.300000
v 0.200000 1.300000 -0.200000
v 0.200000 1.300000 -0.300000
v -0.300000 1.500000 -0.300000
v -0.300000 1.500000 -0.200000
v 0.200000 1.500000 -0.300000
v 0.200000 1.500000 -0.200000
vn -0.0000 -0.0000 1.0000
vn -0.0000 -1.0000 -0.0000
vn -0.0000 1.0000 -0.0000
vn -1.0000 -0.0000 -0.0000
vn 1.0000 -0.0000 -0.0000
vn -0.0000 -0.0000 -1.0000
vt 0.090909 0.863636
vt 0.045455 0.909091
vt 0.045455 0.863636
vt 0.863636 0.363636
vt 0.909091 0.318182
vt 0.863636 0.318182
vt 0.954545 0.000000
vt 0.909091 0.045455
vt 0.909091 0.000000
vt -0.000000 0.772727
vt 0.181818 0.727273
vt 0.045455 0.727273
vt 0.090909 0.909091
vt 0.045455 0.954545
vt 0.818182 0.045455
vt 0.772727 0.090909
vt 0.772727 0.045455
vt 0.818182 0.090909
vt 0.818182 0.227273
vt 0.772727 0.272727
vt 0.909091 0.181818
vt 0.954545 0.136364
vt 0.909091 0.136364
vt 0.500000 0.909091
vt 0.545455 0.818182
vt 0.500000 0.818182
vt 0.409091 0.909091
vt 0.454545 0.818182
vt 0.409091 0.818182
vt 0.454545 0.545455
vt 0.318182 0.636364
vt 0.545455 0.636364
vt 0.954545 0.045455
vt 0.909091 0.090909
vt 0.409091 0.636364
vt 0.409091 0.681818
vt 0.454545 0.727273
vt 0.227273 0.772727
vt -0.000000 0.818182
vt 0.681818 0.227273
vt 0.545455 0.181818
vt 0.772727 0.227273
vt 0.818182 0.272727
vt 0.863636 0.090909
vt 0.863636 0.863636
vt 0.818182 0.909091
vt 0.818182 0.863636
vt 0.409091 0.772727
vt 0.409091 0.727273
vt 0.818182 0.363636
vt 0.818182 0.318182
vt 0.772727 0.409091
vt 0.727273 0.590909
vt 0.727273 0.409091
vt 0.500000 0.772727
vt 0.454545 0.772727
vt 0.136364 0.909091
vt 0.136364 0.863636
vt 0.090909 0.818182
vt 0.454545 0.681818
vt 0.500000 0.727273
vt 0.500000 0.681818
vt 0.590909 0.363636
vt 0.545455 0.409091
vt 0.545455 0.363636
vt 0.500000 0.272727
vt 0.318182 0.136364
vt 0.545455 0.136364
vt 0.772727 0.818182
vt 0.727273 0.863636
vt 0.727273 0.818182
vt 0.863636 0.000000
vt 0.636364 0.045455
vt 0.681818 0.045455
vt 0.772727 0.000000
vt 0.863636 0.500000
vt 0.863636 0.454545
vt 0.318182 0.909091
vt 0.363636 0.818182
vt 0.318182 0.818182
vt 0.227273 0.727273
vt 0.363636 0.772727
vt 0.181818 0.772727
vt 0.363636 0.727273
vt 0.363636 0.681818
vt 0.272727 0.636364
vt 0.045455 0.590909
vt 0.045455 0.636364
vt 0.636364 0.409091
vt 0.590909 0.409091
vt 0.681818 0.318182
vt 0.636364 0.227273
vt 0.636364 0.363636
vt 0.909091 0.818182
vt 0.863636 0.818182
vt 0.590909 0.590909
vt 0.545455 0.590909
vt 0.909091 0.636364
vt 0.863636 0.545455
vt 0.909091 0.545455
vt 0.863636 0.227273
vt 0.909091 0.227273
vt 0.090909 0.954545
vt 0.363636 0.909091
vt 0.727273 0.909091
vt 0.772727 0.863636
vt 0.863636 0.681818
vt 0.863636 0.636364
vt 0.772727 0.363636
vt 0.772727 0.909091
vt 0.454545 0.909091
vt 0.181818 0.818182
vt 0.227273 0.863636
vt 0.227273 0.909091
vt 0.818182 0.590909
vt 0.772727 0.636364
vt 0.772727 0.590909
vt 0.636364 0.636364
vt 0.681818 0.590909
vt 0.636364 0.590909
vt 0.954545 0.090909
vt 0.681818 0.636364
vt 0.818182 0.409091
vt 0.272727 0.818182
vt 0.727273 0.636364
vt 0.863636 0.772727
vt 0.818182 0.772727
vt 0.818182 0.818182
vt 0.590909 0.909091
vt 0.590909 0.818182
vt 0.681818 0.818182
vt 0.681818 0.363636
vt 0.727273 0.363636
vt 0.909091 0.454545
vt 0.227273 0.818182
vt 0.681818 0.136364
vt 0.772727 0.181818
vt 0.636364 0.181818
vt 0.227273 0.272727
vt 0.090909 0.272727
vt 0.272727 0.363636
vt 0.818182 0.636364
vt 0.818182 0.000000
vt 0.045455 0.500000
vt 0.272727 0.454545
vt 0.272727 0.500000
vt 0.272727 0.909091
vt 0.272727 0.863636
vt 0.954545 0.181818
vt 0.863636 0.727273
vt 0.909091 0.681818
vt 0.863636 0.909091
vt 0.909091 0.863636
vt 0.909091 0.772727
vt -0.000000 0.500000
vt 0.045455 0.454545
vt -0.000000 0.454545
vt 0.545455 0.045455
vt 0.318182 0.000000
vt 0.318182 0.045455
vt 0.909091 0.363636
vt 0.909091 0.727273
vt 0.545455 0.727273
vt 0.818182 0.500000
vt 0.409091 0.500000
vt 0.318182 0.409091
vt 0.136364 0.954545
vt 0.181818 0.909091
vt 0.636364 0.818182
vt 0.636364 0.909091
vt 0.590909 0.636364
vt 0.318182 0.454545
vt 0.181818 0.863636
vt 0.000000 0.954545
vt 0.000000 0.909091
vt -0.000000 0.636364
vt 0.545455 0.909091
vt 0.409091 0.545455
vt 0.454545 0.636364
vt 0.545455 0.227273
vt 0.863636 0.272727
vt 0.136364 0.818182
vt 0.500000 0.318182
vt 0.545455 0.318182
vt 0.318182 0.318182
vt 0.363636 0.318182
vt 0.363636 0.272727
vt 0.318182 0.272727
vt 0.318182 0.181818
vt 0.545455 0.272727
vt 0.863636 0.136364
vt 0.545455 0.000000
vt 0.045455 0.818182
vt 0.181818 0.636364
vt 0.227273 0.636364
vt 0.272727 0.590909
vt 0.772727 0.318182
vt 0.681818 0.909091
vt 0.681818 0.409091
vt 0.772727 0.136364
vt 0.227273 0.227273
vt 0.272727 0.227273
vt 0.272727 0.136364
vt 0.318182 0.090909
vt 0.272727 0.090909
vt 0.272727 0.000000
vt 0.045455 0.000000
vt 0.045455 0.090909
vt -0.000000 0.090909
vt -0.000000 0.136364
vt 0.045455 0.136364
vt 0.045455 0.227273
vt 0.090909 0.227273
vt 0.272727 0.272727
vt 0.045455 0.272727
vt 0.045455 0.363636
vt 0.954545 0.227273
vt 0.909091 0.909091
vt 0.500000 0.636364
vt 0.454545 0.500000
vt 0.181818 0.954545
vt 0.318182 0.500000
s 0
usemtl Teacher_Chair_94_Material
f 29/1/1 28/2/1 18/3/1
f 36/4/2 31/5/2 37/6/2
f 42/7/3 54/8/3 55/9/3
f 84/10/4 97/11/4 89/12/4
f 107/13/3 111/14/3 112/2/3
f 59/15/5 50/16/5 51/17/5
f 85/18/3 96/19/3 95/20/3
f 113/21/2 110/22/2 114/23/2
f 91/24/6 76/25/6 77/26/6
f 58/27/6 14/28/6 16/29/6
f 65/30/2 70/31/2 71/32/2
f 105/33/3 103/34/3 104/8/3
f 7/35/6 31/36/6 23/37/6
f 69/38/1 66/39/1 67/10/1
f 77/40/5 69/41/5 72/42/5
f 99/43/3 93/19/3 87/44/3
f 27/45/3 26/46/3 28/47/3
f 52/48/2 51/37/2 48/49/2
f 28/50/4 30/6/4 18/51/4
f 40/52/1 62/53/1 39/54/1
f 43/28/4 11/55/4 44/56/4
f 32/57/4 31/58/4 6/59/4
f 52/60/6 46/61/6 59/62/6
f 25/63/5 27/64/5 29/65/5
f 112/66/1 92/67/1 94/68/1
f 32/69/3 40/70/3 35/71/3
f 87/23/1 78/72/1 79/9/1
f 74/73/4 64/74/4 70/75/4
f 83/76/2 92/77/2 89/50/2
f 54/78/6 13/79/6 9/80/6
f 18/3/6 1/39/6 28/2/6
f 90/81/5 98/82/5 87/83/5
f 31/36/1 35/84/1 37/85/1
f 82/86/2 80/87/2 81/88/2
f 60/89/4 25/63/4 39/90/4
f 91/91/4 78/92/4 86/93/4
f 21/94/3 19/45/3 20/95/3
f 35/32/4 36/96/4 37/97/4
f 106/98/5 93/99/5 99/100/5
f 20/101/1 2/23/1 21/102/1
f 110/103/4 109/57/4 105/13/4
f 55/104/4 9/29/4 10/79/4
f 7/105/2 8/106/2 6/70/2
f 11/107/2 38/98/2 44/108/2
f 4/43/5 18/51/5 21/109/5
f 24/47/3 32/110/3 22/106/3
f 89/111/6 64/26/6 75/28/6
f 10/112/1 11/113/1 42/114/1
f 51/115/1 49/116/1 48/117/1
f 49/118/4 52/119/4 48/120/4
f 111/121/5 115/23/5 112/34/5
f 38/53/1 43/122/1 44/119/1
f 36/109/6 34/123/6 33/50/6
f 24/78/1 6/124/1 8/80/1
f 49/116/6 38/53/6 60/125/6
f 20/47/4 1/126/4 3/127/4
f 60/128/3 42/106/3 43/69/3
f 100/129/5 72/25/5 82/130/5
f 121/105/5 117/131/5 118/71/5
f 30/132/6 39/54/6 25/133/6
f 92/99/4 81/134/4 80/77/4
f 122/56/3 119/135/3 120/38/3
f 88/136/5 96/137/5 85/138/5
f 116/139/6 108/140/6 121/141/6
f 85/126/1 73/142/1 74/108/1
f 15/143/4 59/15/4 58/44/4
f 23/5/5 8/101/5 5/102/5
f 64/144/3 78/145/3 77/146/3
f 45/132/5 60/89/5 38/93/5
f 50/49/3 47/82/3 49/84/3
f 11/113/6 41/147/6 45/148/6
f 38/102/2 36/149/2 25/21/2
f 1/150/2 2/151/2 3/107/2
f 30/152/2 29/153/2 18/45/2
f 16/95/2 17/154/2 15/126/2
f 75/155/2 74/156/2 73/157/2
f 72/158/6 70/159/6 80/160/6
f 56/134/5 17/4/5 14/161/5
f 46/61/1 59/62/1 17/32/1
f 9/126/2 12/162/2 10/150/2
f 42/26/5 11/55/5 13/163/5
f 91/164/2 94/115/2 101/108/2
f 62/165/2 69/64/2 67/166/2
f 116/167/2 117/168/2 115/57/2
f 104/129/4 102/169/4 96/130/4
f 120/170/4 113/131/4 114/169/4
f 49/118/5 40/171/5 48/120/5
f 77/146/2 79/172/2 78/145/2
f 33/173/5 32/57/5 31/58/5
f 57/2/3 58/174/3 46/175/3
f 29/1/1 27/13/1 28/2/1
f 36/4/2 33/161/2 31/5/2
f 42/7/3 53/33/3 54/8/3
f 75/88/4 73/176/4 84/10/4
f 84/10/4 95/83/4 97/11/4
f 89/12/4 75/88/4 84/10/4
f 107/13/3 106/103/3 111/14/3
f 59/15/5 46/18/5 50/16/5
f 95/20/3 84/16/3 85/18/3
f 96/19/3 102/43/3 95/20/3
f 113/21/2 108/149/2 110/22/2
f 91/24/6 90/177/6 76/25/6
f 58/27/6 56/111/6 14/28/6
f 63/178/2 67/166/2 70/31/2
f 71/32/2 69/64/2 65/30/2
f 65/30/2 63/178/2 70/31/2
f 105/33/3 109/121/3 103/34/3
f 23/37/6 5/179/6 7/35/6
f 31/36/6 32/49/6 23/37/6
f 69/38/1 68/135/1 66/39/1
f 78/92/5 68/180/5 69/41/5
f 69/41/5 71/137/5 72/42/5
f 77/40/5 78/92/5 69/41/5
f 87/44/3 98/181/3 99/43/3
f 93/19/3 86/18/3 87/44/3
f 27/45/3 39/152/3 26/46/3
f 52/48/2 59/56/2 51/37/2
f 28/50/4 26/4/4 30/6/4
f 25/133/1 36/109/1 40/52/1
f 40/52/1 61/117/1 62/53/1
f 39/54/1 25/133/1 40/52/1
f 43/28/4 42/26/4 11/55/4
f 6/59/4 22/13/4 32/57/4
f 31/58/4 7/182/4 6/59/4
f 52/60/6 47/37/6 46/61/6
f 25/63/5 39/90/5 27/64/5
f 115/183/1 117/184/1 122/64/1
f 122/64/1 120/166/1 114/185/1
f 122/64/1 114/185/1 110/186/1
f 115/183/1 122/64/1 110/186/1
f 105/187/1 104/188/1 96/189/1
f 115/183/1 110/186/1 105/187/1
f 93/41/1 107/190/1 112/66/1
f 112/66/1 115/183/1 105/187/1
f 105/187/1 96/189/1 92/67/1
f 92/67/1 80/160/1 72/158/1
f 94/68/1 93/41/1 112/66/1
f 92/67/1 72/158/1 94/68/1
f 112/66/1 105/187/1 92/67/1
f 32/69/3 34/106/3 40/70/3
f 87/23/1 86/191/1 78/72/1
f 70/75/4 67/192/4 66/158/4
f 70/75/4 66/158/4 74/73/4
f 64/74/4 80/17/4 70/75/4
f 89/50/2 97/164/2 83/76/2
f 92/77/2 88/4/2 89/50/2
f 54/78/6 53/104/6 13/79/6
f 18/3/6 4/193/6 1/39/6
f 1/39/6 19/175/6 28/2/6
f 87/83/5 79/194/5 76/195/5
f 90/81/5 101/84/5 98/82/5
f 87/83/5 76/195/5 90/81/5
f 31/36/1 32/49/1 35/84/1
f 82/86/2 72/196/2 80/87/2
f 62/96/4 63/120/4 60/89/4
f 60/89/4 38/93/4 25/63/4
f 39/90/4 62/96/4 60/89/4
f 86/93/4 93/109/4 94/197/4
f 91/91/4 77/40/4 78/92/4
f 86/93/4 94/197/4 91/91/4
f 21/94/3 28/153/3 19/45/3
f 35/32/4 40/171/4 36/96/4
f 106/98/5 107/108/5 93/99/5
f 20/101/1 3/191/1 2/23/1
f 110/103/4 108/167/4 109/57/4
f 55/104/4 54/27/4 9/29/4
f 7/105/2 5/110/2 8/106/2
f 11/107/2 45/151/2 38/98/2
f 21/109/5 2/20/5 4/43/5
f 18/51/5 28/50/5 21/109/5
f 24/47/3 23/46/3 32/110/3
f 89/111/6 88/24/6 64/26/6
f 42/114/1 55/168/1 10/112/1
f 10/112/1 12/135/1 11/113/1
f 51/115/1 50/142/1 49/116/1
f 49/118/4 47/122/4 52/119/4
f 111/121/5 116/22/5 115/23/5
f 38/53/1 60/125/1 43/122/1
f 36/109/6 40/52/6 34/123/6
f 24/78/1 22/147/1 6/124/1
f 63/71/6 65/69/6 49/116/6
f 49/116/6 48/117/6 38/53/6
f 60/125/6 63/71/6 49/116/6
f 20/47/4 19/45/4 1/126/4
f 60/128/3 41/47/3 42/106/3
f 100/129/5 94/177/5 72/25/5
f 121/105/5 122/198/5 117/131/5
f 30/132/6 26/199/6 39/54/6
f 92/99/4 83/100/4 81/134/4
f 122/56/3 121/28/3 119/135/3
f 85/138/5 74/73/5 64/74/5
f 88/136/5 92/200/5 96/137/5
f 85/138/5 64/74/5 88/136/5
f 111/201/6 106/202/6 99/203/6
f 99/203/6 98/67/6 101/204/6
f 100/205/6 82/206/6 81/207/6
f 99/203/6 101/204/6 100/205/6
f 111/201/6 99/203/6 100/205/6
f 100/205/6 81/207/6 83/208/6
f 83/208/6 97/209/6 95/210/6
f 102/211/6 103/212/6 109/213/6
f 83/208/6 95/210/6 102/211/6
f 111/201/6 100/205/6 83/208/6
f 121/141/6 118/214/6 116/139/6
f 116/139/6 111/201/6 83/208/6
f 83/208/6 102/211/6 109/213/6
f 108/140/6 113/215/6 119/216/6
f 116/139/6 83/208/6 109/213/6
f 108/140/6 119/216/6 121/141/6
f 116/139/6 109/213/6 108/140/6
f 85/126/1 84/127/1 73/142/1
f 58/44/4 16/72/4 15/143/4
f 59/15/4 46/18/4 58/44/4
f 23/5/5 24/6/5 8/101/5
f 74/156/3 66/216/3 68/141/3
f 74/156/3 68/141/3 78/145/3
f 72/196/3 80/87/3 64/144/3
f 64/144/3 74/156/3 78/145/3
f 77/146/3 72/196/3 64/144/3
f 45/132/5 41/199/5 60/89/5
f 50/49/3 46/48/3 47/82/3
f 11/113/6 42/114/6 41/147/6
f 38/102/2 48/217/2 36/149/2
f 1/150/2 4/162/2 2/151/2
f 30/152/2 25/218/2 29/153/2
f 16/95/2 14/94/2 17/154/2
f 75/155/2 64/144/2 74/156/2
f 72/158/6 71/192/6 70/159/6
f 56/134/5 57/77/5 17/4/5
f 17/32/1 57/163/1 46/61/1
f 59/62/1 15/219/1 17/32/1
f 9/126/2 13/154/2 12/162/2
f 13/163/5 53/25/5 42/26/5
f 11/55/5 12/61/5 13/163/5
f 101/108/2 90/76/2 91/164/2
f 94/115/2 100/142/2 101/108/2
f 61/220/2 65/30/2 69/64/2
f 67/166/2 63/178/2 62/165/2
f 62/165/2 61/220/2 69/64/2
f 116/167/2 118/221/2 117/168/2
f 104/129/4 103/170/4 102/169/4
f 120/170/4 119/198/4 113/131/4
f 49/118/5 65/169/5 61/130/5
f 40/171/5 36/96/5 48/120/5
f 49/118/5 61/130/5 40/171/5
f 77/146/2 76/222/2 79/172/2
f 33/173/5 34/168/5 32/57/5
f 57/2/3 56/14/3 58/174/3
