# Blender 4.4.1
# www.blender.org
mtllib Cryptex_64.mtl
o Cryptex_64
v -0.100000 1.000000 0.400000
v 0.100000 1.000000 0.400000
v -0.300000 1.000000 0.300000
v -0.100000 1.100000 0.300000
v -0.100000 1.000000 0.300000
v 0.100000 1.000000 0.300000
v 0.300000 1.000000 0.300000
v 0.300000 1.100000 0.300000
v -0.300000 1.000000 0.100000
v 0.300000 1.000000 0.100000
v -0.400000 1.000000 0.100000
v -0.400000 1.100000 0.100000
v -0.300000 1.100000 0.100000
v 0.400000 1.100000 0.100000
v 0.400000 1.000000 0.100000
v -0.400000 1.000000 -0.100000
v -0.400000 1.100000 -0.100000
v -0.300000 1.000000 -0.100000
v 0.400000 1.000000 -0.100000
v 0.400000 1.100000 -0.100000
v 0.300000 1.100000 -0.100000
v 0.300000 1.000000 -0.100000
v -0.300000 1.000000 -0.300000
v 0.100000 1.000000 -0.300000
v 0.300000 1.000000 -0.300000
v -0.100000 1.000000 -0.400000
v -0.100000 1.100000 -0.400000
v -0.100000 1.100000 -0.300000
v -0.100000 1.000000 -0.300000
v 0.100000 1.000000 -0.400000
v -0.200000 1.100000 0.500000
v -0.100000 1.100000 0.400000
v 0.200000 1.100000 0.500000
v 0.100000 1.100000 0.400000
v -0.400000 1.100000 0.400000
v -0.200000 1.100000 0.400000
v 0.200000 1.100000 0.400000
v 0.100000 1.100000 0.300000
v 0.400000 1.100000 0.400000
v -0.300000 1.100000 0.300000
v 0.400000 1.100000 0.200000
v -0.500000 1.100000 0.200000
v -0.400000 1.100000 0.200000
v 0.300000 1.100000 0.100000
v 0.500000 1.100000 0.200000
v -0.500000 1.100000 -0.200000
v -0.300000 1.100000 -0.100000
v 0.500000 1.100000 -0.200000
v 0.400000 1.100000 -0.200000
v -0.400000 1.100000 -0.200000
v -0.400000 1.100000 -0.400000
v -0.300000 1.100000 -0.300000
v -0.200000 1.100000 -0.400000
v 0.100000 1.100000 -0.300000
v 0.300000 1.100000 -0.300000
v 0.400000 1.100000 -0.400000
v -0.200000 1.100000 -0.500000
v 0.100000 1.100000 -0.400000
v 0.200000 1.100000 -0.400000
v 0.200000 1.100000 -0.500000
v -0.200000 3.400000 0.500000
v -0.200000 3.400000 0.400000
v -0.100000 3.400000 0.400000
v 0.200000 3.400000 0.500000
v -0.400000 3.400000 0.400000
v -0.300000 3.400000 0.300000
v 0.300000 3.400000 0.300000
v 0.200000 3.400000 0.400000
v 0.400000 3.400000 0.400000
v -0.500000 3.400000 0.200000
v -0.400000 3.400000 0.200000
v -0.300000 3.400000 0.100000
v 0.400000 3.400000 0.200000
v 0.500000 3.400000 0.200000
v -0.500000 3.400000 -0.200000
v -0.400000 3.400000 -0.100000
v -0.400000 3.400000 -0.200000
v 0.400000 3.400000 -0.200000
v 0.500000 3.400000 -0.200000
v -0.300000 3.400000 -0.300000
v -0.400000 3.400000 -0.400000
v -0.200000 3.400000 -0.400000
v 0.100000 3.400000 -0.400000
v 0.400000 3.400000 -0.400000
v -0.200000 3.400000 -0.500000
v 0.200000 3.400000 -0.500000
v 0.200000 3.400000 -0.400000
v -0.100000 3.400000 0.300000
v -0.100000 3.500000 0.400000
v 0.100000 3.500000 0.300000
v 0.100000 3.500000 0.400000
v 0.100000 3.400000 0.400000
v -0.300000 3.500000 0.300000
v -0.100000 3.500000 0.300000
v 0.100000 3.400000 0.300000
v 0.300000 3.500000 0.300000
v -0.400000 3.400000 0.100000
v -0.400000 3.500000 0.100000
v -0.300000 3.500000 0.100000
v 0.400000 3.500000 0.100000
v 0.300000 3.400000 0.100000
v 0.300000 3.500000 0.100000
v 0.400000 3.400000 0.100000
v -0.400000 3.500000 -0.100000
v -0.300000 3.500000 -0.100000
v 0.400000 3.400000 -0.100000
v 0.400000 3.500000 -0.100000
v 0.300000 3.400000 -0.100000
v -0.300000 3.400000 -0.100000
v 0.300000 3.500000 -0.100000
v -0.300000 3.500000 -0.300000
v -0.100000 3.400000 -0.300000
v -0.100000 3.500000 -0.300000
v 0.100000 3.500000 -0.300000
v 0.100000 3.400000 -0.300000
v 0.300000 3.400000 -0.300000
v 0.300000 3.500000 -0.300000
v -0.100000 3.500000 -0.400000
v -0.100000 3.400000 -0.400000
v 0.100000 3.500000 -0.400000
vn -0.0000 -0.0000 1.0000
vn -0.0000 -0.0000 -1.0000
vn -1.0000 -0.0000 -0.0000
vn 1.0000 -0.0000 -0.0000
vn -0.0000 1.0000 -0.0000
vn -0.0000 -1.0000 -0.0000
vt 0.444444 0.600000
vt 0.400000 0.577778
vt 0.444444 0.577778
vt 0.488889 0.600000
vt 0.533333 0.622222
vt 0.533333 0.600000
vt 0.311111 0.511111
vt 0.222222 0.000000
vt 0.311111 0.000000
vt 0.577778 0.511111
vt 0.622222 0.000000
vt 0.577778 0.000000
vt 0.800000 0.511111
vt 0.844444 0.000000
vt 0.800000 0.000000
vt 0.488889 0.555556
vt 0.444444 0.555556
vt 0.622222 0.555556
vt 0.600000 0.577778
vt 0.600000 0.555556
vt 0.022222 0.622222
vt 0.000000 0.644444
vt 0.000000 0.622222
vt 0.044444 0.622222
vt 0.066667 0.644444
vt 0.066667 0.622222
vt 0.444444 0.511111
vt 0.400000 0.533333
vt 0.400000 0.511111
vt 0.088889 0.244444
vt 0.044444 0.266667
vt 0.066667 0.244444
vt 0.488889 0.577778
vt 0.844444 0.511111
vt 0.866667 0.000000
vt 0.288889 0.666667
vt 0.333333 0.533333
vt 0.377778 0.622222
vt 0.533333 0.511111
vt 0.488889 0.533333
vt 0.488889 0.511111
vt 0.600000 0.600000
vt 0.622222 0.577778
vt 0.488889 0.622222
vt 0.488889 0.000000
vt 0.400000 0.000000
vt 0.200000 0.955556
vt 0.222222 0.444444
vt 0.200000 0.444444
vt 0.622222 0.533333
vt 0.600000 0.533333
vt 0.577778 0.533333
vt 0.444444 0.533333
vt 0.444444 0.622222
vt 0.400000 0.600000
vt 0.400000 0.622222
vt 0.533333 0.555556
vt 0.533333 0.533333
vt 0.577778 0.555556
vt 0.533333 0.577778
vt 0.755556 0.000000
vt 0.711111 0.511111
vt 0.755556 0.511111
vt 0.400000 0.555556
vt 0.600000 0.511111
vt 0.622222 0.511111
vt 0.577778 0.577778
vt 0.977778 0.511111
vt 0.955556 0.000000
vt 0.977778 0.000000
vt 0.177778 0.444444
vt 0.177778 0.955556
vt 0.066667 0.600000
vt 0.111111 0.600000
vt 0.155556 0.511111
vt 0.888889 0.511111
vt 0.888889 0.000000
vt 0.577778 0.622222
vt 0.577778 0.600000
vt 0.177778 0.400000
vt 0.200000 0.377778
vt 0.200000 0.422222
vt 0.933333 0.511111
vt 0.933333 0.000000
vt 0.911111 0.000000
vt 0.911111 0.511111
vt 0.088889 0.644444
vt 0.088889 0.622222
vt 0.111111 0.622222
vt 0.666667 0.000000
vt 0.711111 0.000000
vt 0.155556 0.222222
vt 0.133333 0.200000
vt 0.088889 0.200000
vt 0.622222 0.600000
vt 0.600000 0.622222
vt 0.022222 0.644444
vt 0.177778 0.044444
vt 0.200000 0.066667
vt 0.200000 0.022222
vt 0.133333 0.622222
vt 0.111111 0.644444
vt 0.222222 0.511111
vt 0.044444 0.644444
vt 0.088889 0.266667
vt 0.044444 0.311111
vt 0.022222 0.311111
vt 0.022222 0.355556
vt 0.044444 0.355556
vt 0.044444 0.400000
vt 0.088889 0.400000
vt 0.088889 0.422222
vt 0.066667 0.444444
vt 0.066667 0.422222
vt 0.022222 0.377778
vt 0.000000 0.377778
vt 0.000000 0.288889
vt 0.022222 0.422222
vt 0.066667 0.222222
vt 0.155556 0.244444
vt 0.177778 0.266667
vt 0.133333 0.266667
vt 0.022222 0.288889
vt 0.133333 0.244444
vt 0.022222 0.244444
vt 0.866667 0.511111
vt 0.244444 0.666667
vt 0.244444 0.622222
vt 0.222222 0.622222
vt 0.222222 0.577778
vt 0.244444 0.577778
vt 0.244444 0.533333
vt 0.288889 0.533333
vt 0.333333 0.688889
vt 0.288889 0.688889
vt 0.288889 0.511111
vt 0.333333 0.511111
vt 0.333333 0.666667
vt 0.377778 0.666667
vt 0.377778 0.533333
vt 0.377778 0.577778
vt 0.222222 0.955556
vt 0.955556 0.511111
vt 0.022222 0.511111
vt 0.000000 0.511111
vt 0.000000 0.555556
vt 0.022222 0.555556
vt 0.022222 0.600000
vt 0.066667 0.466667
vt 0.022222 0.466667
vt 0.111111 0.444444
vt 0.155556 0.466667
vt 0.111111 0.466667
vt 0.177778 0.555556
vt 0.177778 0.511111
vt 0.155556 0.600000
vt 0.155556 0.555556
vt 0.133333 0.422222
vt 0.133333 0.400000
vt 0.177778 0.355556
vt 0.200000 0.355556
vt 0.200000 0.311111
vt 0.177778 0.311111
vt 0.200000 0.244444
vt 0.200000 0.288889
vt 0.222222 0.288889
vt 0.222222 0.377778
vt 0.155556 0.422222
vt 0.155556 0.444444
vt 0.666667 0.511111
vt 0.088889 0.044444
vt 0.088889 0.022222
vt 0.066667 0.000000
vt 0.066667 0.022222
vt 0.022222 0.088889
vt 0.044444 0.088889
vt 0.044444 0.044444
vt 0.022222 0.066667
vt 0.000000 0.066667
vt 0.000000 0.155556
vt 0.022222 0.022222
vt 0.066667 0.200000
vt 0.044444 0.177778
vt 0.044444 0.133333
vt 0.022222 0.133333
vt 0.022222 0.155556
vt 0.088889 0.177778
vt 0.200000 0.155556
vt 0.222222 0.155556
vt 0.200000 0.133333
vt 0.177778 0.133333
vt 0.177778 0.177778
vt 0.133333 0.177778
vt 0.022222 0.200000
vt 0.200000 0.200000
vt 0.155556 0.200000
vt 0.622222 0.622222
vt 0.133333 0.022222
vt 0.133333 0.044444
vt 0.177778 0.088889
vt 0.200000 0.088889
vt 0.222222 0.066667
vt 0.155556 0.022222
vt 0.155556 0.000000
vt 0.133333 0.644444
s 0
usemtl Cryptex_64_Material
f 96/1/1 95/2/1 67/3/1
f 80/4/2 113/5/2 112/6/2
f 64/7/1 31/8/1 33/9/1
f 65/10/3 43/11/3 35/12/3
f 81/13/2 53/14/2 51/15/2
f 25/16/4 21/3/4 22/17/4
f 30/18/4 54/19/4 24/20/4
f 72/21/1 98/22/1 97/23/1
f 76/24/2 105/25/2 109/26/2
f 2/27/1 32/28/1 1/29/1
f 63/30/5 66/31/5 62/32/5
f 101/33/4 96/1/4 67/3/4
f 61/34/3 36/35/3 31/14/3
f 113/36/5 90/37/5 110/38/5
f 7/39/1 38/40/1 6/41/1
f 89/42/3 88/43/3 63/19/3
f 115/1/2 117/44/2 116/4/2
f 85/41/2 60/12/2 57/45/2
f 42/9/3 75/29/3 46/46/3
f 82/47/3 57/48/3 53/49/3
f 28/20/3 26/50/3 29/51/3
f 26/39/2 58/52/2 30/10/2
f 13/40/3 3/27/3 40/53/3
f 111/54/3 109/55/3 105/56/3
f 20/57/4 15/40/4 19/58/4
f 88/59/1 93/60/1 66/57/1
f 51/61/3 77/62/3 81/63/3
f 87/63/2 56/15/2 59/61/2
f 4/40/1 3/27/1 5/41/1
f 10/53/4 8/64/4 7/28/4
f 23/16/2 28/60/2 29/57/2
f 16/65/2 47/50/2 18/66/2
f 104/6/3 97/33/3 98/4/3
f 99/67/3 66/57/3 93/60/3
f 86/68/4 59/69/4 60/70/4
f 79/47/2 49/71/2 78/72/2
f 29/73/6 24/74/6 10/75/6
f 79/41/4 45/46/4 48/45/4
f 68/76/4 33/35/4 37/77/4
f 119/6/2 120/78/2 83/79/2
f 17/16/3 11/53/3 12/17/3
f 116/80/5 78/81/5 84/82/5
f 75/83/2 50/69/2 46/84/2
f 70/76/1 43/85/1 71/86/1
f 108/26/2 107/87/2 106/88/2
f 117/44/4 108/1/4 116/4/4
f 113/87/3 119/89/3 112/88/3
f 84/13/4 49/61/4 56/15/4
f 73/62/4 39/90/4 41/91/4
f 60/92/6 58/93/6 27/94/6
f 6/51/4 34/59/4 2/52/4
f 65/10/1 36/11/1 62/66/1
f 95/95/4 91/96/4 92/42/4
f 22/79/2 20/96/2 19/42/2
f 39/90/1 68/66/1 37/11/1
f 103/24/1 102/97/1 101/21/1
f 92/52/1 89/57/1 63/58/1
f 8/98/6 41/99/6 39/100/6
f 73/86/1 45/84/1 74/83/1
f 32/52/3 5/65/3 1/10/3
f 15/19/1 44/79/1 10/67/1
f 107/79/4 103/60/4 106/67/4
f 83/101/4 114/102/4 115/89/4
f 24/17/2 55/33/2 25/16/2
f 9/20/1 12/67/1 11/59/1
f 52/3/3 18/64/3 47/2/3
f 96/1/1 90/55/1 95/2/1
f 80/4/2 111/44/2 113/5/2
f 64/7/1 61/103/1 31/8/1
f 65/10/3 71/66/3 43/11/3
f 81/13/2 82/34/2 53/14/2
f 25/16/4 55/33/4 21/3/4
f 30/18/4 58/43/4 54/19/4
f 72/21/1 99/97/1 98/22/1
f 76/24/2 104/104/2 105/25/2
f 2/27/1 34/53/1 32/28/1
f 63/30/5 88/105/5 66/31/5
f 66/31/5 72/106/5 97/107/5
f 76/108/5 109/109/5 80/110/5
f 80/110/5 112/111/5 119/112/5
f 119/112/5 85/113/5 82/114/5
f 77/115/5 75/116/5 70/117/5
f 80/110/5 119/112/5 82/114/5
f 80/110/5 82/114/5 81/118/5
f 80/110/5 81/118/5 77/115/5
f 76/108/5 80/110/5 77/115/5
f 62/32/5 61/119/5 64/92/5
f 68/120/5 67/121/5 95/122/5
f 76/108/5 77/115/5 70/117/5
f 97/107/5 76/108/5 70/117/5
f 97/107/5 70/117/5 71/123/5
f 66/31/5 97/107/5 71/123/5
f 64/92/5 68/120/5 95/122/5
f 64/92/5 95/122/5 92/124/5
f 64/92/5 92/124/5 63/30/5
f 66/31/5 71/123/5 65/125/5
f 62/32/5 64/92/5 63/30/5
f 66/31/5 65/125/5 62/32/5
f 101/33/4 102/4/4 96/1/4
f 61/34/3 62/126/3 36/35/3
f 113/36/5 111/127/5 105/128/5
f 105/128/5 104/129/5 98/130/5
f 99/131/5 93/132/5 94/133/5
f 105/128/5 98/130/5 99/131/5
f 120/134/5 118/135/5 113/36/5
f 113/36/5 105/128/5 99/131/5
f 94/133/5 89/136/5 91/137/5
f 113/36/5 99/131/5 94/133/5
f 114/138/5 120/134/5 113/36/5
f 110/38/5 117/139/5 114/138/5
f 100/2/5 107/56/5 110/38/5
f 90/37/5 96/140/5 102/141/5
f 102/141/5 100/2/5 110/38/5
f 110/38/5 114/138/5 113/36/5
f 113/36/5 94/133/5 91/137/5
f 90/37/5 102/141/5 110/38/5
f 113/36/5 91/137/5 90/37/5
f 7/39/1 8/58/1 38/40/1
f 89/42/3 94/95/3 88/43/3
f 115/1/2 114/54/2 117/44/2
f 85/41/2 86/10/2 60/12/2
f 42/9/3 70/7/3 75/29/3
f 82/47/3 85/142/3 57/48/3
f 28/20/3 27/18/3 26/50/3
f 26/39/2 27/58/2 58/52/2
f 13/40/3 9/41/3 3/27/3
f 111/54/3 80/1/3 109/55/3
f 20/57/4 14/16/4 15/40/4
f 88/59/1 94/67/1 93/60/1
f 51/61/3 50/91/3 77/62/3
f 87/63/2 84/13/2 56/15/2
f 4/40/1 40/53/1 3/27/1
f 10/53/4 44/17/4 8/64/4
f 23/16/2 52/33/2 28/60/2
f 16/65/2 17/51/2 47/50/2
f 104/6/3 76/60/3 97/33/3
f 99/67/3 72/59/3 66/57/3
f 86/68/4 87/143/4 59/69/4
f 79/47/2 48/49/2 49/71/2
f 9/144/6 11/145/6 16/146/6
f 18/147/6 23/148/6 29/73/6
f 9/144/6 16/146/6 18/147/6
f 5/149/6 3/150/6 9/144/6
f 2/151/6 1/113/6 5/149/6
f 10/75/6 7/152/6 6/153/6
f 6/153/6 2/151/6 5/149/6
f 5/149/6 9/144/6 18/147/6
f 29/73/6 26/26/6 30/89/6
f 5/149/6 18/147/6 29/73/6
f 10/75/6 6/153/6 5/149/6
f 19/154/6 15/155/6 10/75/6
f 24/74/6 25/156/6 22/157/6
f 22/157/6 19/154/6 10/75/6
f 10/75/6 5/149/6 29/73/6
f 29/73/6 30/89/6 24/74/6
f 24/74/6 22/157/6 10/75/6
f 79/41/4 74/29/4 45/46/4
f 68/76/4 64/126/4 33/35/4
f 119/6/2 118/5/2 120/78/2
f 17/16/3 16/40/3 11/53/3
f 85/113/5 119/112/5 83/158/5
f 83/158/5 115/159/5 116/80/5
f 116/80/5 108/160/5 106/161/5
f 103/162/5 101/163/5 67/121/5
f 67/121/5 68/120/5 69/164/5
f 73/165/5 74/166/5 79/167/5
f 67/121/5 69/164/5 73/165/5
f 103/162/5 67/121/5 73/165/5
f 87/168/5 86/169/5 85/113/5
f 87/168/5 85/113/5 83/158/5
f 103/162/5 73/165/5 79/167/5
f 106/161/5 103/162/5 79/167/5
f 106/161/5 79/167/5 78/81/5
f 87/168/5 83/158/5 116/80/5
f 116/80/5 106/161/5 78/81/5
f 84/82/5 87/168/5 116/80/5
f 75/83/2 77/143/2 50/69/2
f 70/76/1 42/77/1 43/85/1
f 108/26/2 110/25/2 107/87/2
f 117/44/4 110/54/4 108/1/4
f 113/87/3 118/102/3 119/89/3
f 84/13/4 78/63/4 49/61/4
f 73/62/4 69/170/4 39/90/4
f 4/171/6 32/172/6 31/173/6
f 4/171/6 31/173/6 36/174/6
f 12/175/6 13/176/6 40/177/6
f 40/177/6 4/171/6 36/174/6
f 43/178/6 42/179/6 46/180/6
f 40/177/6 36/174/6 35/181/6
f 40/177/6 35/181/6 43/178/6
f 53/182/6 57/119/6 60/92/6
f 12/175/6 40/177/6 43/178/6
f 52/183/6 47/184/6 17/185/6
f 12/175/6 43/178/6 46/180/6
f 17/185/6 12/175/6 46/180/6
f 17/185/6 46/180/6 50/186/6
f 27/94/6 28/187/6 52/183/6
f 52/183/6 17/185/6 50/186/6
f 49/188/6 48/189/6 20/190/6
f 20/190/6 21/191/6 55/192/6
f 55/192/6 54/193/6 58/93/6
f 49/188/6 20/190/6 55/192/6
f 52/183/6 50/186/6 51/194/6
f 52/183/6 51/194/6 53/182/6
f 56/195/6 49/188/6 55/192/6
f 59/196/6 56/195/6 55/192/6
f 27/94/6 52/183/6 53/182/6
f 59/196/6 55/192/6 58/93/6
f 27/94/6 53/182/6 60/92/6
f 60/92/6 59/196/6 58/93/6
f 6/51/4 38/20/4 34/59/4
f 65/10/1 35/12/1 36/11/1
f 95/95/4 90/197/4 91/96/4
f 22/79/2 21/78/2 20/96/2
f 39/90/1 69/170/1 68/66/1
f 103/24/1 100/104/1 102/97/1
f 92/52/1 91/59/1 89/57/1
f 31/173/6 32/172/6 34/198/6
f 34/198/6 38/199/6 8/98/6
f 8/98/6 44/200/6 14/201/6
f 14/201/6 20/190/6 48/189/6
f 48/189/6 45/202/6 41/99/6
f 37/203/6 33/204/6 31/173/6
f 37/203/6 31/173/6 34/198/6
f 14/201/6 48/189/6 41/99/6
f 37/203/6 34/198/6 8/98/6
f 8/98/6 14/201/6 41/99/6
f 39/100/6 37/203/6 8/98/6
f 73/86/1 41/85/1 45/84/1
f 32/52/3 4/51/3 5/65/3
f 15/19/1 14/42/1 44/79/1
f 107/79/4 100/6/4 103/60/4
f 83/101/4 120/205/4 114/102/4
f 24/17/2 54/3/2 55/33/2
f 9/20/1 13/19/1 12/67/1
f 52/3/3 23/17/3 18/64/3
