# Blender 4.4.1
# www.blender.org
mtllib safe_80.mtl
o safe_80
v -2.000000 -0.000001 1.000000
v 2.000000 -0.000001 1.000000
v -2.000000 -0.000001 -1.000000
v 2.000000 -0.000001 -1.000000
v -2.000000 10.000001 1.000000
v 2.000000 10.000001 1.000000
v -2.000000 10.000001 -1.000000
v 2.000000 10.000001 -1.000000
vn -0.0000 -1.0000 -0.0000
vn -1.0000 -0.0000 -0.0000
vn 1.0000 -0.0000 -0.0000
vn -0.0000 -0.0000 1.0000
vn -0.0000 1.0000 -0.0000
vn -0.0000 -0.0000 -1.0000
vt 0.000000 0.826446
vt 0.330579 0.991736
vt 0.330579 0.826446
vt 0.661157 0.000000
vt 0.826446 0.826446
vt 0.826446 0.000000
vt 0.991736 0.826446
vt 0.000000 0.000000
vt 0.330579 0.000000
vt 0.661157 0.826446
vt 0.000000 0.991736
vt 0.991736 0.000000
vt 0.661157 0.991736
s 0
usemtl safe_80_Material
f 1/1/1 4/2/1 2/3/1
f 1/4/2 7/5/2 3/6/2
f 2/6/3 8/7/3 6/5/3
f 6/3/4 1/8/4 2/9/4
f 6/10/5 7/2/5 5/3/5
f 8/10/6 3/9/6 7/3/6
f 1/1/1 3/11/1 4/2/1
f 1/4/2 5/10/2 7/5/2
f 2/6/3 4/12/3 8/7/3
f 6/3/4 5/1/4 1/8/4
f 6/10/5 8/13/5 7/2/5
f 8/10/6 4/4/6 3/9/6
