# Blender 4.4.1
# www.blender.org
mtllib safe_cap_81.mtl
o safe_cap_81
v -1.700000 0.399999 1.000000
v 1.700000 0.399999 1.000000
v -1.700000 0.399999 0.700000
v 1.700000 0.399999 0.700000
v -1.700000 9.600001 1.000000
v 1.700000 9.600001 1.000000
v -1.700000 9.600001 0.700000
v 1.700000 9.600001 0.700000
vn -0.0000 -0.0000 -1.0000
vn 1.0000 -0.0000 -0.0000
vn -0.0000 -0.0000 1.0000
vn -0.0000 -1.0000 -0.0000
vn -0.0000 1.0000 -0.0000
vn -1.0000 -0.0000 -0.0000
vt 0.354167 0.958333
vt 0.708333 0.000000
vt 0.354167 0.000000
vt 0.770833 0.958333
vt 0.739583 0.000000
vt 0.770833 0.000000
vt -0.000000 0.000000
vt -0.000000 0.958333
vt -0.000000 0.989583
vt 0.708333 0.958333
vt 0.354167 0.989583
vt 0.739583 0.958333
vt 0.708333 0.989583
s 0
usemtl safe_cap_81_Material
f 7/1/1 4/2/1 3/3/1
f 8/4/2 2/5/2 4/6/2
f 1/7/3 6/1/3 5/8/3
f 3/9/4 2/1/4 1/8/4
f 6/10/5 7/11/5 5/1/5
f 5/10/6 3/5/6 1/2/6
f 7/1/1 8/10/1 4/2/1
f 8/4/2 6/12/2 2/5/2
f 1/7/3 2/3/3 6/1/3
f 3/9/4 4/11/4 2/1/4
f 6/10/5 8/13/5 7/11/5
f 5/10/6 7/12/6 3/5/6
