# Blender 4.4.1
# www.blender.org
mtllib teacherTable_20.mtl
o teacherTable_20
v -1.300000 0.100000 0.600000
v -1.400000 -0.000000 0.600000
v -1.300000 0.100000 0.500000
v -0.400000 -0.000000 0.600000
v 1.400000 -0.000000 0.600000
v 1.300000 -0.000000 0.600000
v -1.400000 -0.000000 -0.700000
v -0.400000 -0.000000 -0.700000
v 1.400000 -0.000000 -0.700000
v 1.300000 -0.000000 -0.700000
v -0.500000 0.100000 0.600000
v -0.500000 0.100000 0.500000
v -1.000000 0.300000 0.500000
v -0.800000 0.300000 0.500000
v -0.800000 0.400000 0.500000
v -1.300000 0.700000 0.500000
v -1.300000 0.600000 0.600000
v -1.300000 0.600000 0.500000
v -1.000000 0.700000 0.600000
v -0.500000 0.700000 0.600000
v -0.500000 0.600000 0.600000
v -0.500000 0.600000 0.500000
v -1.300000 0.700000 0.600000
v -0.500000 0.700000 0.500000
v -0.800000 1.000000 0.500000
v -1.300000 1.200000 0.600000
v -0.500000 1.200000 0.500000
v -1.300000 1.200000 0.500000
v -1.300000 1.300000 0.600000
v -0.500000 1.200000 0.600000
v -0.500000 1.300000 0.600000
v -0.500000 1.300000 0.500000
v -1.300000 1.300000 0.500000
v -0.800000 1.500000 0.500000
v -0.800000 1.600000 0.500000
v -1.000000 1.600000 0.500000
v -0.400000 1.800000 0.600000
v -0.500000 1.800000 0.600000
v 1.300000 1.800000 0.600000
v -1.300000 1.800000 0.500000
v -0.400000 1.800000 -0.700000
v -1.400000 1.900000 0.600000
v -1.300000 1.800000 0.600000
v -0.500000 1.800000 0.500000
v 1.400000 1.900000 0.600000
v -1.400000 1.900000 -0.700000
v 1.300000 1.800000 -0.700000
v -1.500000 1.900000 0.700000
v -1.500000 2.000000 0.700000
v 1.500000 2.000000 0.700000
v 1.500000 1.900000 0.700000
v -1.500000 1.900000 -0.800000
v -1.500000 2.000000 -0.800000
v 1.400000 1.900000 -0.700000
v 1.500000 1.900000 -0.800000
v 1.500000 2.000000 -0.800000
v -1.000000 0.400000 0.600000
v -1.000000 0.400000 0.500000
v -1.000000 0.300000 0.600000
v -0.800000 0.400000 0.600000
v -0.800000 0.300000 0.600000
v -1.000000 1.000000 0.600000
v -1.000000 1.000000 0.500000
v -1.000000 0.900000 0.500000
v -1.000000 0.900000 0.600000
v -0.800000 1.000000 0.600000
v -0.800000 0.900000 0.600000
v -0.800000 0.900000 0.500000
v -1.000000 1.500000 0.600000
v -1.000000 1.500000 0.500000
v -1.000000 1.600000 0.600000
v -0.800000 1.600000 0.600000
v -0.800000 1.500000 0.600000
vn -1.0000 -0.0000 -0.0000
vn -0.0000 1.0000 -0.0000
vn -0.0000 -0.0000 1.0000
vn -0.0000 -1.0000 -0.0000
vn 1.0000 -0.0000 -0.0000
vn -0.0000 -0.0000 -1.0000
vt 0.615385 0.846154
vt 0.630769 0.830769
vt 0.615385 0.830769
vt 0.630769 0.923077
vt 0.600000 0.907692
vt 0.630769 0.907692
vt 0.476923 0.923077
vt 0.476923 0.907692
vt 0.200000 0.846154
vt 0.123077 0.815385
vt 0.246154 0.815385
vt 0.307692 0.861538
vt 0.261538 0.892308
vt 0.261538 0.815385
vt 0.076923 0.846154
vt 0.000000 0.815385
vt 0.861538 0.800000
vt 0.661538 0.523077
vt 0.661538 0.800000
vt 0.984615 0.230769
vt 0.830769 0.430769
vt 0.984615 0.430769
vt 0.923077 0.076923
vt 0.892308 0.061538
vt 0.892308 0.076923
vt 0.123077 0.892308
vt 0.000000 0.892308
vt 0.076923 0.861538
vt 0.646154 0.830769
vt 0.338462 0.846154
vt 0.384615 0.815385
vt 0.384615 0.892308
vt 0.661538 0.907692
vt 0.876923 0.630769
vt 0.892308 0.430769
vt 0.876923 0.430769
vt 0.153846 0.276923
vt 0.138462 0.107692
vt 0.138462 0.092308
vt 0.430769 0.538462
vt 0.446154 0.523077
vt 0.430769 0.523077
vt 0.384615 0.876923
vt 0.507692 0.861538
vt 0.507692 0.876923
vt 0.661538 0.815385
vt 0.461538 0.523077
vt 0.892308 0.030769
vt 0.923077 0.015385
vt 0.923077 0.030769
vt 0.907692 0.507692
vt 0.907692 0.430769
vt 0.446154 0.553846
vt 0.430769 0.569231
vt 0.430769 0.553846
vt 0.461538 0.907692
vt 0.000000 0.923077
vt 0.000000 0.907692
vt 0.461538 0.815385
vt 0.000000 0.584615
vt 0.461538 0.584615
vt 0.876923 0.723077
vt 0.892308 0.646154
vt 0.892308 0.723077
vt 0.861538 0.430769
vt 0.846154 0.446154
vt 0.846154 0.430769
vt 0.892308 0.000000
vt 0.430769 0.000000
vt 0.876923 0.015385
vt 0.907692 0.769231
vt 0.876923 0.753846
vt 0.907692 0.753846
vt 0.630769 0.892308
vt 0.600000 0.892308
vt 0.461538 0.923077
vt 0.584615 0.938462
vt 0.584615 0.923077
vt 0.630769 0.230769
vt 0.430769 0.230769
vt 0.861538 0.476923
vt 0.846154 0.492308
vt 0.846154 0.476923
vt 0.907692 0.523077
vt 0.892308 0.600000
vt 0.907692 0.600000
vt 0.123077 0.953846
vt 0.000000 0.938462
vt 0.000000 0.953846
vt 0.830769 0.507692
vt 0.830769 0.230769
vt 0.246154 0.892308
vt 0.200000 0.861538
vt 0.430769 0.584615
vt 0.153846 0.569231
vt 0.907692 0.784615
vt 0.876923 0.800000
vt 0.907692 0.800000
vt 0.000000 0.292308
vt 0.015385 0.200000
vt 0.015385 0.276923
vt 0.892308 0.015385
vt 0.907692 0.676923
vt 0.461538 0.892308
vt 0.584615 0.907692
vt 0.584615 0.892308
vt 0.892308 0.230769
vt 0.876923 0.215385
vt 0.446154 0.215385
vt 0.861538 0.461538
vt 0.846154 0.461538
vt 0.615385 0.861538
vt 0.384615 0.846154
vt 0.384615 0.830769
vt 0.661538 1.000000
vt 0.923077 0.800000
vt 0.461538 0.938462
vt 0.892308 0.046154
vt 0.553846 0.861538
vt 0.630769 0.876923
vt 0.892308 0.753846
vt 0.630769 0.846154
vt 0.600000 0.923077
vt 0.169231 0.846154
vt 0.307692 0.846154
vt 0.338462 0.861538
vt 0.046154 0.846154
vt 0.861538 0.523077
vt 0.923077 0.061538
vt 0.046154 0.861538
vt 0.646154 0.907692
vt 0.661538 0.923077
vt 0.892308 0.630769
vt 0.138462 0.015385
vt 0.153846 0.000000
vt 0.138462 0.276923
vt 0.138462 0.200000
vt 0.015385 0.184615
vt 0.138462 0.184615
vt 0.061538 0.107692
vt 0.446154 0.538462
vt 0.384615 0.861538
vt 0.892308 0.507692
vt 0.446154 0.569231
vt 0.876923 0.646154
vt 0.861538 0.446154
vt 0.446154 0.015385
vt 0.876923 0.769231
vt 0.630769 0.523077
vt 0.861538 0.492308
vt 0.892308 0.523077
vt 0.123077 0.938462
vt 0.630769 0.507692
vt 0.169231 0.861538
vt 0.430769 0.292308
vt 0.415385 0.292308
vt 0.415385 0.569231
vt 0.153846 0.292308
vt 0.876923 0.784615
vt 0.415385 0.000000
vt 0.000000 0.000000
vt 0.015385 0.015385
vt 0.415385 0.276923
vt 0.015385 0.092308
vt 0.015385 0.107692
vt 0.923077 0.000000
vt 0.892308 0.676923
vt 0.923077 1.000000
vt 0.923077 0.046154
vt 0.630769 0.861538
s 0
usemtl teacherTable_20_Material
f 62/1/1 64/2/1 65/3/1
f 25/4/2 62/5/2 66/6/2
f 31/5/2 33/7/2 29/8/2
f 68/9/3 16/10/3 24/11/3
f 36/12/3 40/13/3 33/14/3
f 14/15/3 3/16/3 12/10/3
f 47/17/1 6/18/1 39/19/1
f 4/20/4 7/21/4 8/22/4
f 34/23/4 69/24/4 70/25/4
f 22/26/3 18/27/3 15/28/3
f 21/6/1 12/29/1 11/2/1
f 34/30/3 32/31/3 44/32/3
f 67/33/3 62/4/3 65/6/3
f 10/34/4 5/35/4 6/36/4
f 37/37/3 20/38/3 21/39/3
f 57/40/1 13/41/1 59/42/1
f 3/43/2 11/44/2 12/45/2
f 54/46/5 5/47/5 9/18/5
f 36/48/2 72/49/2 35/50/2
f 28/51/5 23/35/5 16/52/5
f 14/53/5 60/54/5 61/55/5
f 51/56/3 49/57/3 48/58/3
f 56/59/2 49/60/2 50/61/2
f 17/62/5 3/63/5 18/64/5
f 68/65/5 66/66/5 67/67/5
f 51/68/4 48/69/4 45/70/4
f 60/71/3 59/72/3 61/73/3
f 60/74/2 58/5/2 57/75/2
f 26/76/4 27/77/4 30/78/4
f 42/42/1 7/79/1 2/80/1
f 34/81/5 72/82/5 73/83/5
f 24/84/1 30/85/1 27/86/1
f 44/87/4 43/88/4 40/89/4
f 41/90/5 4/79/5 8/91/5
f 27/92/3 28/26/3 25/93/3
f 46/60/6 54/94/6 41/95/6
f 61/96/4 13/97/4 14/98/4
f 42/99/3 29/100/3 43/101/3
f 68/49/4 65/68/4 64/102/4
f 40/103/5 29/85/5 33/86/5
f 17/104/4 22/105/4 21/106/4
f 55/107/4 54/108/4 46/109/4
f 71/83/1 70/110/1 69/111/1
f 56/112/5 51/113/5 55/1/5
f 53/1/1 48/114/1 49/113/1
f 41/115/4 39/116/4 37/19/4
f 55/76/6 53/88/6 56/117/6
f 73/50/3 71/118/3 69/48/3
f 19/119/2 24/120/2 23/44/2
f 32/103/1 38/121/1 44/73/1
f 62/1/1 63/122/1 64/2/1
f 25/4/2 63/123/2 62/5/2
f 31/5/2 32/123/2 33/7/2
f 64/124/3 28/26/3 16/10/3
f 24/11/3 25/93/3 68/9/3
f 68/9/3 64/124/3 16/10/3
f 33/14/3 70/125/3 36/12/3
f 36/12/3 35/126/3 40/13/3
f 13/127/3 18/27/3 3/16/3
f 12/10/3 22/26/3 14/15/3
f 14/15/3 13/127/3 3/16/3
f 47/17/1 10/128/1 6/18/1
f 4/20/4 2/91/4 7/21/4
f 34/23/4 73/129/4 69/24/4
f 18/27/3 13/127/3 58/130/3
f 15/28/3 14/15/3 22/26/3
f 18/27/3 58/130/3 15/28/3
f 21/6/1 22/131/1 12/29/1
f 34/30/3 70/125/3 33/14/3
f 44/32/3 40/13/3 35/126/3
f 34/30/3 33/14/3 32/31/3
f 44/32/3 35/126/3 34/30/3
f 67/33/3 66/132/3 62/4/3
f 10/34/4 9/133/4 5/35/4
f 11/134/3 4/135/3 37/37/3
f 37/37/3 38/136/3 31/137/3
f 31/137/3 26/138/3 30/139/3
f 20/38/3 19/140/3 21/39/3
f 37/37/3 31/137/3 30/139/3
f 37/37/3 30/139/3 20/38/3
f 21/39/3 11/134/3 37/37/3
f 57/40/1 58/141/1 13/41/1
f 3/43/2 1/142/2 11/44/2
f 54/46/5 45/59/5 5/47/5
f 36/48/2 71/102/2 72/49/2
f 28/51/5 26/143/5 23/35/5
f 14/53/5 15/144/5 60/54/5
f 51/56/3 50/76/3 49/57/3
f 56/59/2 53/16/2 49/60/2
f 17/62/5 1/145/5 3/63/5
f 68/65/5 25/146/5 66/66/5
f 48/69/4 52/80/4 46/109/4
f 48/69/4 46/109/4 42/147/4
f 45/70/4 54/108/4 51/68/4
f 48/69/4 42/147/4 45/70/4
f 60/71/3 57/148/3 59/72/3
f 60/74/2 15/6/2 58/5/2
f 26/76/4 28/117/4 27/77/4
f 42/42/1 46/149/1 7/79/1
f 34/81/5 35/150/5 72/82/5
f 24/84/1 20/151/1 30/85/1
f 44/87/4 38/152/4 43/88/4
f 41/90/5 37/153/5 4/79/5
f 28/26/3 64/124/3 63/154/3
f 25/93/3 24/11/3 27/92/3
f 28/26/3 63/154/3 25/93/3
f 54/94/6 9/155/6 10/156/6
f 54/94/6 10/156/6 47/157/6
f 8/158/6 7/99/6 46/60/6
f 54/94/6 47/157/6 41/95/6
f 41/95/6 8/158/6 46/60/6
f 61/96/4 59/159/4 13/97/4
f 6/160/3 5/69/3 45/155/3
f 2/161/3 4/135/3 11/134/3
f 2/161/3 11/134/3 1/162/3
f 39/163/3 6/160/3 45/155/3
f 37/37/3 39/163/3 45/155/3
f 42/99/3 2/161/3 1/162/3
f 17/164/3 21/39/3 19/140/3
f 42/99/3 1/162/3 17/164/3
f 37/37/3 45/155/3 42/99/3
f 38/136/3 37/37/3 42/99/3
f 17/164/3 19/140/3 23/165/3
f 26/138/3 31/137/3 29/100/3
f 42/99/3 17/164/3 23/165/3
f 42/99/3 23/165/3 26/138/3
f 43/101/3 38/136/3 42/99/3
f 42/99/3 26/138/3 29/100/3
f 68/49/4 67/166/4 65/68/4
f 40/103/5 43/167/5 29/85/5
f 17/104/4 18/56/4 22/105/4
f 46/109/4 52/80/4 55/107/4
f 55/107/4 51/68/4 54/108/4
f 71/83/1 36/81/1 70/110/1
f 56/112/5 50/142/5 51/113/5
f 53/1/1 52/3/1 48/114/1
f 41/115/4 47/168/4 39/116/4
f 55/76/6 52/57/6 53/88/6
f 73/50/3 72/169/3 71/118/3
f 19/119/2 20/170/2 24/120/2
f 24/120/2 16/45/2 23/44/2
f 32/103/1 31/167/1 38/121/1
