# Blender 4.4.1
# www.blender.org
mtllib Reagent Bottle_79.mtl
o Reagent_Bottle_79
v -0.100000 -0.000000 0.200000
v 0.200000 -0.000000 0.200000
v -0.200000 -0.000000 0.100000
v -0.100000 -0.000000 0.100000
v 0.300000 -0.000000 0.100000
v 0.200000 -0.000000 0.100000
v -0.100000 -0.000000 -0.200000
v -0.200000 -0.000000 -0.200000
v 0.200000 -0.000000 -0.200000
v 0.300000 -0.000000 -0.200000
v -0.100000 -0.000000 -0.300000
v 0.200000 -0.000000 -0.300000
v -0.100000 0.800000 0.100000
v -0.100000 0.800000 0.200000
v 0.200000 0.800000 0.200000
v -0.200000 0.800000 0.100000
v 0.300000 0.800000 0.100000
v -0.200000 0.800000 -0.200000
v 0.200000 0.800000 -0.200000
v 0.300000 0.800000 -0.200000
v -0.100000 0.800000 -0.300000
v 0.200000 0.800000 -0.300000
v -0.100000 0.900000 0.100000
v 0.200000 0.900000 0.100000
v 0.200000 0.800000 0.100000
v 0.000000 0.900000 0.000000
v 0.100000 0.900000 0.000000
v -0.100000 0.800000 -0.200000
v -0.100000 0.900000 -0.200000
v 0.200000 0.900000 -0.200000
v 0.100000 0.900000 -0.100000
v 0.000000 0.900000 -0.100000
v 0.000000 1.000000 -0.100000
v 0.100000 1.000000 -0.100000
v 0.100000 1.000000 0.000000
v 0.000000 1.000000 0.000000
vn -0.0000 1.0000 -0.0000
vn 1.0000 -0.0000 -0.0000
vn -1.0000 -0.0000 -0.0000
vn -0.0000 -1.0000 -0.0000
vn -0.0000 -0.0000 1.0000
vn -0.0000 -0.0000 -1.0000
vt 0.352941 0.588235
vt 0.470588 0.647059
vt 0.294118 0.647059
vt 0.176471 0.823529
vt 0.352941 0.882353
vt 0.176471 0.882353
vt 0.764706 0.647059
vt 0.705882 0.470588
vt 0.764706 0.470588
vt 0.588235 0.941176
vt 0.647059 0.470588
vt 0.588235 0.470588
vt 0.470588 0.705882
vt 0.294118 0.764706
vt 0.294118 0.705882
vt 0.000000 0.882353
vt 0.000000 0.823529
vt 0.823529 0.647059
vt 0.823529 0.470588
vt 0.058824 0.058824
vt 0.058824 0.235294
vt 0.235294 0.235294
vt 0.294118 0.470588
vt 0.470588 0.470588
vt 0.352941 0.529412
vt 0.705882 0.764706
vt 0.764706 0.705882
vt 0.705882 0.705882
vt 0.235294 0.294118
vt 0.294118 0.294118
vt 0.941176 0.470588
vt 0.882353 0.000000
vt 0.941176 0.000000
vt 0.705882 0.647059
vt 0.470588 0.941176
vt 0.529412 0.470588
vt 0.294118 0.000000
vt 0.470588 0.000000
vt 0.176471 0.764706
vt 0.352941 0.823529
vt 0.352941 0.764706
vt 0.411765 0.764706
vt 0.882353 0.470588
vt 0.823529 0.000000
vt 0.470588 0.764706
vt 0.411765 0.823529
vt 0.176471 0.294118
vt 0.705882 0.941176
vt 0.000000 0.294118
vt 0.000000 0.764706
vt 0.647059 0.000000
vt 0.529412 0.941176
vt 0.411765 0.588235
vt 0.647059 0.941176
vt 0.294118 0.235294
vt 0.294118 0.058824
vt 0.235294 0.058824
vt 0.235294 0.000000
vt 0.058824 0.000000
vt -0.000000 0.058824
vt -0.000000 0.235294
vt 0.058824 0.294118
vt 0.411765 0.529412
vt 0.764706 0.764706
vt 0.235294 0.764706
vt 0.470588 0.823529
s 0
usemtl Reagent_Bottle_79_Material
f 32/1/1 30/2/1 29/3/1
f 25/4/2 30/5/2 24/6/2
f 28/7/1 16/8/1 13/9/1
f 28/10/3 11/11/3 7/12/3
f 19/13/1 21/14/1 28/15/1
f 23/16/3 28/4/3 13/17/3
f 20/18/1 25/9/1 17/19/1
f 4/20/4 7/21/4 9/22/4
f 23/23/1 24/24/1 26/25/1
f 36/26/3 32/27/3 26/28/3
f 25/13/1 14/3/1 15/2/1
f 25/14/2 2/29/2 6/30/2
f 17/31/5 6/32/5 5/33/5
f 32/34/6 34/27/6 31/7/6
f 31/7/2 35/28/2 27/34/2
f 18/35/6 7/36/6 8/24/6
f 15/24/5 1/37/5 2/38/5
f 28/39/6 30/40/6 19/41/6
f 35/42/1 33/40/1 36/41/1
f 13/43/5 3/44/5 4/32/5
f 27/45/5 36/46/5 26/42/5
f 22/11/6 11/38/6 21/24/6
f 14/39/3 4/29/3 1/47/3
f 22/48/2 9/11/2 12/8/2
f 18/39/3 3/49/3 16/50/3
f 20/19/2 5/51/2 10/44/2
f 25/39/5 23/17/5 13/50/5
f 19/52/6 10/12/6 9/36/6
f 32/1/1 31/53/1 30/2/1
f 29/3/1 26/25/1 32/1/1
f 25/4/2 19/40/2 30/5/2
f 28/7/1 18/34/1 16/8/1
f 28/10/3 21/54/3 11/11/3
f 19/13/1 22/45/1 21/14/1
f 23/16/3 29/6/3 28/4/3
f 20/18/1 19/7/1 25/9/1
f 10/55/4 5/56/4 6/57/4
f 6/57/4 2/58/4 1/59/4
f 4/20/4 3/60/4 8/61/4
f 6/57/4 1/59/4 4/20/4
f 9/22/4 10/55/4 6/57/4
f 11/62/4 12/29/4 9/22/4
f 4/20/4 8/61/4 7/21/4
f 7/21/4 11/62/4 9/22/4
f 9/22/4 6/57/4 4/20/4
f 24/24/1 30/2/1 31/53/1
f 24/24/1 31/53/1 27/63/1
f 26/25/1 29/3/1 23/23/1
f 24/24/1 27/63/1 26/25/1
f 36/26/3 33/64/3 32/27/3
f 25/13/1 13/15/1 14/3/1
f 25/14/2 15/65/2 2/29/2
f 17/31/5 25/43/5 6/32/5
f 32/34/6 33/28/6 34/27/6
f 31/7/2 34/27/2 35/28/2
f 18/35/6 28/52/6 7/36/6
f 15/24/5 14/23/5 1/37/5
f 28/39/6 29/4/6 30/40/6
f 35/42/1 34/46/1 33/40/1
f 13/43/5 16/19/5 3/44/5
f 27/45/5 35/66/5 36/46/5
f 22/11/6 12/51/6 11/38/6
f 14/39/3 13/65/3 4/29/3
f 22/48/2 19/54/2 9/11/2
f 18/39/3 8/47/3 3/49/3
f 20/19/2 17/11/2 5/51/2
f 25/39/5 24/4/5 23/17/5
f 19/52/6 20/10/6 10/12/6
