# Blender 4.4.1
# www.blender.org
mtllib Library table_70.mtl
o Library_table_70
v -0.500000 -0.000000 0.400000
v -0.600000 -0.000000 0.500000
v -0.500000 -0.000000 0.500000
v -0.600000 -0.000000 0.400000
v 0.600000 -0.000000 0.500000
v 0.600000 -0.000000 0.400000
v 0.500000 -0.000000 0.500000
v 0.500000 -0.000000 0.400000
v -0.600000 -0.000000 -0.500000
v -0.600000 -0.000000 -0.400000
v -0.500000 -0.000000 -0.400000
v -0.500000 -0.000000 -0.500000
v 0.600000 -0.000000 -0.400000
v 0.600000 -0.000000 -0.500000
v 0.500000 -0.000000 -0.500000
v 0.500000 -0.000000 -0.400000
v -0.500000 0.900000 0.400000
v -0.600000 0.900000 0.400000
v -0.500000 0.900000 -0.500000
v -0.500000 0.900000 -0.400000
v 0.600000 0.900000 -0.400000
v 0.500000 0.900000 -0.500000
v 0.600000 0.900000 0.400000
v -0.600000 0.900000 -0.400000
v -0.700000 1.100000 0.500000
v -0.700000 1.200000 0.500000
v -0.600000 1.100000 0.500000
v 0.600000 1.100000 0.500000
v 0.700000 1.200000 0.500000
v 0.700000 1.100000 0.500000
v -0.700000 1.200000 -0.500000
v -0.700000 1.100000 -0.500000
v -0.600000 1.100000 -0.500000
v 0.700000 1.100000 -0.500000
v 0.700000 1.200000 -0.500000
v 0.600000 1.100000 -0.500000
v -0.500000 0.900000 0.500000
v 0.500000 0.900000 0.500000
v 0.500000 0.900000 0.400000
v 0.500000 0.900000 -0.400000
vn -0.0000 1.0000 -0.0000
vn -0.0000 -0.0000 -1.0000
vn -1.0000 -0.0000 -0.0000
vn -0.0000 -1.0000 -0.0000
vn 1.0000 -0.0000 -0.0000
vn -0.0000 -0.0000 1.0000
vt 0.411765 0.000000
vt 0.823529 0.294118
vt 0.411765 0.294118
vt 0.823529 0.529412
vt 0.852941 0.264706
vt 0.823529 0.264706
vt 0.882353 0.000000
vt 0.852941 0.000000
vt 0.794118 0.588235
vt 0.794118 0.294118
vt 0.088235 0.264706
vt 0.058824 0.000000
vt 0.088235 0.000000
vt 0.382353 0.735294
vt 0.411765 0.705882
vt 0.382353 0.705882
vt 0.294118 0.735294
vt 0.000000 0.764706
vt 0.000000 0.735294
vt 0.823529 0.000000
vt 0.735294 0.323529
vt 0.441176 0.558824
vt 0.735294 0.558824
vt 0.323529 0.617647
vt 0.352941 0.352941
vt 0.323529 0.352941
vt 0.882353 0.529412
vt 0.882353 0.264706
vt 0.441176 0.852941
vt 0.411765 0.911765
vt 0.705882 0.911765
vt 0.352941 0.735294
vt 0.352941 0.705882
vt 0.911765 0.000000
vt 0.911765 0.264706
vt 0.970588 0.852941
vt 1.000000 0.911765
vt 0.323529 0.705882
vt 0.294118 0.705882
vt 0.323529 0.735294
vt 0.000000 0.705882
vt 0.764706 0.588235
vt 0.764706 0.294118
vt 0.029412 0.676471
vt 0.382353 0.676471
vt 0.058824 0.617647
vt 0.382353 0.323529
vt 0.029412 0.323529
vt 0.352941 0.264706
vt 0.911765 0.529412
vt 0.852941 0.529412
vt 0.823529 0.588235
vt 0.058824 0.264706
vt 0.411765 0.735294
vt 0.294118 0.764706
vt 0.735294 0.294118
vt 0.441176 0.294118
vt 0.441176 0.323529
vt 0.411765 0.323529
vt 0.411765 0.558824
vt 0.764706 0.558824
vt 0.764706 0.323529
vt 0.441176 0.588235
vt 0.735294 0.588235
vt 0.352941 0.617647
vt 0.411765 0.588235
vt 0.705882 0.588235
vt 0.676471 0.588235
vt 0.676471 0.852941
vt 0.735294 0.852941
vt 0.970588 0.588235
vt 1.000000 0.588235
vt 0.000000 0.676471
vt 0.411765 0.676471
vt 0.382353 0.352941
vt 0.058824 0.352941
vt 0.029412 0.352941
vt 0.411765 0.352941
vt 0.000000 0.352941
vt 0.000000 0.323529
vt 0.029412 0.000000
vt 0.352941 0.000000
vt 0.382353 0.000000
s 0
usemtl Library_table_70_Material
f 26/1/1 35/2/1 31/3/1
f 39/4/2 6/5/2 8/6/2
f 38/5/3 8/7/3 7/8/3
f 36/9/4 30/2/4 28/10/4
f 17/11/5 3/12/5 1/13/5
f 15/14/4 13/15/4 16/16/4
f 34/17/5 29/18/5 30/19/5
f 18/6/2 1/8/2 4/20/2
f 39/21/4 20/22/4 40/23/4
f 40/24/3 15/25/3 16/26/3
f 19/27/5 11/5/5 12/28/5
f 18/29/3 27/30/3 33/31/3
f 9/32/4 11/16/4 10/33/4
f 24/28/6 11/34/6 20/35/6
f 21/36/5 36/37/5 28/31/5
f 4/17/4 3/38/4 2/39/4
f 8/40/4 5/33/4 7/38/4
f 31/17/3 25/41/3 26/19/3
f 32/42/4 27/10/4 25/43/4
f 33/44/2 36/45/2 19/46/2
f 28/47/6 27/48/6 38/49/6
f 21/50/6 16/28/6 13/35/6
f 26/1/1 29/20/1 35/2/1
f 39/4/2 23/51/2 6/5/2
f 38/5/3 39/28/3 8/7/3
f 36/9/4 34/52/4 30/2/4
f 17/11/5 37/53/5 3/12/5
f 15/14/4 14/54/4 13/15/4
f 34/17/5 35/55/5 29/18/5
f 18/6/2 17/5/2 1/8/2
f 39/21/4 38/56/4 37/57/4
f 17/58/4 18/59/4 24/60/4
f 39/21/4 37/57/4 17/58/4
f 21/61/4 23/62/4 39/21/4
f 19/63/4 22/64/4 40/23/4
f 40/23/4 21/61/4 39/21/4
f 39/21/4 17/58/4 24/60/4
f 20/22/4 19/63/4 40/23/4
f 39/21/4 24/60/4 20/22/4
f 40/24/3 22/65/3 15/25/3
f 19/27/5 20/51/5 11/5/5
f 18/29/3 4/63/3 2/66/3
f 33/31/3 9/67/3 10/68/3
f 33/31/3 10/68/3 24/69/3
f 18/29/3 2/66/3 27/30/3
f 33/31/3 24/69/3 18/29/3
f 9/32/4 12/14/4 11/16/4
f 24/28/6 10/7/6 11/34/6
f 28/31/5 5/67/5 6/64/5
f 28/31/5 6/64/5 23/70/5
f 13/71/5 14/72/5 36/37/5
f 28/31/5 23/70/5 21/36/5
f 21/36/5 13/71/5 36/37/5
f 4/17/4 1/40/4 3/38/4
f 8/40/4 6/32/4 5/33/4
f 31/17/3 32/39/3 25/41/3
f 32/42/4 33/9/4 27/10/4
f 33/44/2 32/73/2 31/41/2
f 31/41/2 35/15/2 34/74/2
f 36/45/2 14/75/2 15/25/2
f 31/41/2 34/74/2 36/45/2
f 12/76/2 9/77/2 33/44/2
f 33/44/2 31/41/2 36/45/2
f 36/45/2 15/25/2 22/65/2
f 19/46/2 12/76/2 33/44/2
f 36/45/2 22/65/2 19/46/2
f 28/47/6 30/59/6 29/78/6
f 29/78/6 26/79/6 25/80/6
f 27/48/6 2/81/6 3/12/6
f 29/78/6 25/80/6 27/48/6
f 7/82/6 5/83/6 28/47/6
f 28/47/6 29/78/6 27/48/6
f 27/48/6 3/12/6 37/53/6
f 38/49/6 7/82/6 28/47/6
f 27/48/6 37/53/6 38/49/6
f 21/50/6 40/27/6 16/28/6
