# Blender 4.4.1
# www.blender.org
mtllib magnetic block_72.mtl
o magnetic_block_72
v 0.000000 -4.000000 0.100000
v 0.000000 -3.900000 -0.000000
v -0.100000 -3.900000 0.100000
v -0.100000 -4.000000 0.100000
v -0.100000 -3.900000 -0.000000
v 0.000000 -3.900000 0.100000
v 0.000000 -4.000000 -0.000000
v -0.100000 -4.000000 -0.000000
vn 1.0000 -0.0000 -0.0000
vn -0.0000 -0.0000 -1.0000
vn -0.0000 1.0000 -0.0000
vn -1.0000 -0.0000 -0.0000
vn -0.0000 -0.0000 1.0000
vn -0.0000 -1.0000 -0.0000
vt 0.500000 0.000000
vt 0.000000 0.500000
vt 0.000000 0.000000
vt 0.500000 0.500000
vt 0.000000 1.000000
vt 0.500000 1.000000
s 0
usemtl magnetic_block_72_Material
f 7/1/1 6/2/1 1/3/1
f 8/3/2 2/4/2 7/1/2
f 6/1/3 5/2/3 3/3/3
f 3/5/4 8/4/4 4/2/4
f 1/4/5 3/5/5 4/2/5
f 8/5/6 1/4/6 4/2/6
f 7/1/1 2/4/1 6/2/1
f 8/3/2 5/2/2 2/4/2
f 6/1/3 2/4/3 5/2/3
f 3/5/4 5/6/4 8/4/4
f 1/4/5 6/6/5 3/5/5
f 8/5/6 7/6/6 1/4/6
