# Blender 4.4.1
# www.blender.org
mtllib book_50.mtl
o book_50
v -0.300000 -0.000000 0.500000
v 0.300000 -0.000000 0.500000
v -0.300000 -0.000000 -0.500000
v 0.300000 -0.000000 -0.500000
v -0.300000 0.400000 0.500000
v 0.300000 0.400000 0.500000
v -0.300000 0.400000 -0.500000
v 0.300000 0.400000 -0.500000
vn -0.0000 -0.0000 -1.0000
vn 1.0000 -0.0000 -0.0000
vn -0.0000 -0.0000 1.0000
vn -0.0000 1.0000 -0.0000
vn -1.0000 -0.0000 -0.0000
vn -0.0000 -1.0000 -0.0000
vt 0.631579 0.210526
vt 0.947368 0.000000
vt 0.631579 0.000000
vt 0.526316 0.736842
vt 0.000000 0.947368
vt 0.000000 0.736842
vt 0.842105 0.736842
vt 0.526316 0.526316
vt 0.842105 0.526316
vt 0.315789 0.526316
vt 0.631579 0.526316
vt 0.000000 0.526316
vt 0.000000 0.000000
vt 0.315789 0.000000
vt 0.947368 0.210526
vt 0.526316 0.947368
s 0
usemtl book_50_Material
f 7/1/1 4/2/1 3/3/1
f 4/4/2 6/5/2 2/6/2
f 6/7/3 1/8/3 2/9/3
f 7/10/4 6/3/4 8/11/4
f 7/4/5 1/12/5 5/6/5
f 1/13/6 4/10/6 2/14/6
f 7/1/1 8/15/1 4/2/1
f 4/4/2 8/16/2 6/5/2
f 6/7/3 5/4/3 1/8/3
f 7/10/4 5/14/4 6/3/4
f 7/4/5 3/8/5 1/12/5
f 1/13/6 3/12/6 4/10/6
