# Blender 4.4.1
# www.blender.org
mtllib News board_36.mtl
o News_board_36
v -0.500000 -0.000000 -0.400000
v -0.500000 -0.000000 -0.500000
v 0.500000 -0.000000 -0.500000
v 0.500000 -0.000000 -0.400000
v -0.500000 1.000000 -0.500000
v -0.500000 1.000000 -0.400000
v 0.500000 1.000000 -0.500000
v 0.500000 1.000000 -0.400000
vn 1.0000 -0.0000 -0.0000
vn -0.0000 -1.0000 -0.0000
vn -0.0000 -0.0000 1.0000
vn -0.0000 1.0000 -0.0000
vn -1.0000 -0.0000 -0.0000
vn -0.0000 -0.0000 -1.0000
vt 0.550000 0.500000
vt 0.600000 0.000000
vt 0.600000 0.500000
vt 1.000000 0.550000
vt 0.500000 0.500000
vt 0.500000 0.550000
vt 0.500000 1.000000
vt 0.000000 0.500000
vt 0.500000 0.600000
vt 0.550000 0.000000
vt 0.500000 0.000000
vt 0.000000 0.000000
vt 1.000000 0.500000
vt 0.000000 1.000000
vt 1.000000 0.600000
s 0
usemtl News_board_36_Material
f 8/1/1 3/2/1 7/3/1
f 3/4/2 1/5/2 2/6/2
f 8/7/3 1/8/3 4/5/3
f 8/4/4 5/9/4 6/6/4
f 6/5/5 2/10/5 1/11/5
f 5/8/6 3/11/6 2/12/6
f 8/1/1 4/10/1 3/2/1
f 3/4/2 4/13/2 1/5/2
f 8/7/3 6/14/3 1/8/3
f 8/4/4 7/15/4 5/9/4
f 6/5/5 5/1/5 2/10/5
f 5/8/6 7/5/6 3/11/6
