# Blender 4.4.1
# www.blender.org
mtllib closed box_53.mtl
o closed_box_53
v -0.300000 -0.000000 0.300000
v 0.300000 -0.000000 0.300000
v -0.200000 0.100000 0.200000
v -0.200000 0.100000 -0.200000
v -0.300000 -0.000000 -0.300000
v 0.300000 -0.000000 -0.300000
v 0.200000 0.100000 0.200000
v 0.200000 0.100000 -0.200000
v 0.200000 0.500000 0.200000
v -0.200000 0.500000 0.200000
v -0.200000 0.500000 -0.200000
v 0.200000 0.500000 -0.200000
v -0.300000 0.600000 0.300000
v 0.300000 0.600000 0.300000
v -0.300000 0.600000 -0.300000
v 0.300000 0.600000 -0.300000
vn -0.0000 1.0000 -0.0000
vn -1.0000 -0.0000 -0.0000
vn -0.0000 -1.0000 -0.0000
vn -0.0000 -0.0000 -1.0000
vn 1.0000 -0.0000 -0.0000
vn -0.0000 -0.0000 1.0000
vt 0.428571 0.714286
vt 0.714286 1.000000
vt 0.428571 1.000000
vt 0.714286 0.714286
vt 0.428571 0.428571
vt 0.714286 0.428571
vt 1.000000 0.714286
vt 1.000000 0.428571
vt 0.857143 0.000000
vt 0.428571 0.000000
vt 0.000000 0.428571
vt 0.428571 0.857143
vt 0.000000 -0.000000
vt 0.857143 0.428571
vt 0.000000 0.857143
s 0
usemtl closed_box_53_Material
f 10/1/1 12/2/1 11/3/1
f 11/4/2 3/5/2 10/1/2
f 3/6/3 8/7/3 7/8/3
f 14/9/1 15/5/1 13/10/1
f 12/2/4 4/1/4 11/3/4
f 8/4/5 9/3/5 7/1/5
f 1/11/3 6/12/3 2/5/3
f 6/9/5 14/5/5 2/10/5
f 13/11/2 5/10/2 1/13/2
f 14/5/6 1/13/6 2/10/6
f 3/5/6 9/4/6 10/1/6
f 16/14/4 5/10/4 15/5/4
f 10/1/1 9/4/1 12/2/1
f 11/4/2 4/6/2 3/5/2
f 3/6/3 4/4/3 8/7/3
f 14/9/1 16/14/1 15/5/1
f 12/2/4 8/4/4 4/1/4
f 8/4/5 12/2/5 9/3/5
f 1/11/3 5/15/3 6/12/3
f 6/9/5 16/14/5 14/5/5
f 13/11/2 15/5/2 5/10/2
f 14/5/6 13/11/6 1/13/6
f 3/5/6 7/6/6 9/4/6
f 16/14/4 6/9/4 5/10/4
