# Blender 4.4.1
# www.blender.org
mtllib poster_42.mtl
o poster_42
v -1.000000 -0.000000 -0.100000
v -1.000000 -0.000000 0.000000
v 1.000000 -0.000000 0.000000
v 1.000000 -0.000000 -0.100000
v -1.000000 2.300000 -0.100000
v -1.000000 2.300000 0.000000
v 1.000000 2.300000 -0.100000
v 1.000000 2.300000 0.000000
vn -0.0000 1.0000 -0.0000
vn 1.0000 -0.0000 -0.0000
vn -0.0000 -1.0000 -0.0000
vn -1.0000 -0.0000 -0.0000
vn -0.0000 -0.0000 -1.0000
vn -0.0000 -0.0000 1.0000
vt 0.465116 0.558140
vt 0.000000 0.581395
vt 0.000000 0.558140
vt 0.976744 0.534884
vt 0.953488 0.000000
vt 0.976744 0.000000
vt 0.000000 0.534884
vt 0.930233 0.534884
vt 0.930233 0.000000
vt 0.465116 0.534884
vt 0.000000 0.000000
vt 0.465116 0.000000
vt 0.465116 0.581395
vt 0.953488 0.534884
s 0
usemtl poster_42_Material
f 8/1/1 5/2/1 6/3/1
f 7/4/2 3/5/2 4/6/2
f 4/1/3 2/7/3 1/3/3
f 6/8/4 1/5/4 2/9/4
f 7/10/5 1/11/5 5/7/5
f 3/9/6 6/10/6 2/12/6
f 8/1/1 7/13/1 5/2/1
f 7/4/2 8/14/2 3/5/2
f 4/1/3 3/10/3 2/7/3
f 6/8/4 5/14/4 1/5/4
f 7/10/5 4/12/5 1/11/5
f 3/9/6 8/8/6 6/10/6
