# Blender 4.4.1
# www.blender.org
mtllib poster3_44.mtl
o poster3_44
v -1.000000 -0.000000 -0.100000
v -1.000000 -0.000000 0.000000
v 1.000000 -0.000000 -0.100000
v 1.000000 -0.000000 0.000000
v -1.000000 2.300000 -0.100000
v -1.000000 2.300000 0.000000
v 1.000000 2.300000 -0.100000
v 1.000000 2.300000 0.000000
vn -0.0000 1.0000 -0.0000
vn -1.0000 -0.0000 -0.0000
vn -0.0000 -1.0000 -0.0000
vn 1.0000 -0.0000 -0.0000
vn -0.0000 -0.0000 1.0000
vn -0.0000 -0.0000 -1.0000
vt 0.465116 0.558140
vt 0.000000 0.581395
vt 0.000000 0.558140
vt 0.930233 0.534884
vt 0.953488 0.000000
vt 0.930233 0.000000
vt 0.465116 0.534884
vt 0.953488 0.534884
vt 0.976744 0.000000
vt 0.976744 0.534884
vt 0.465116 0.000000
vt 0.000000 0.000000
vt 0.465116 0.581395
vt 0.000000 0.534884
s 0
usemtl poster3_44_Material
f 8/1/1 5/2/1 6/3/1
f 6/4/2 1/5/2 2/6/2
f 4/7/3 1/3/3 3/1/3
f 8/8/4 3/9/4 7/10/4
f 8/4/5 2/11/5 4/6/5
f 1/12/6 7/7/6 3/11/6
f 8/1/1 7/13/1 5/2/1
f 6/4/2 5/8/2 1/5/2
f 4/7/3 2/14/3 1/3/3
f 8/8/4 4/5/4 3/9/4
f 8/4/5 6/7/5 2/11/5
f 1/12/6 5/14/6 7/7/6
