# Blender 4.4.1
# www.blender.org
mtllib Painting2_38.mtl
o Painting2_38
v -0.500000 -0.000000 -0.400000
v -0.500000 -0.000000 -0.500000
v 0.500000 -0.000000 -0.400000
v 0.500000 -0.000000 -0.500000
v -0.500000 1.000000 -0.500000
v -0.500000 1.000000 -0.400000
v 0.500000 1.000000 -0.500000
v 0.500000 1.000000 -0.400000
vn -1.0000 -0.0000 -0.0000
vn -0.0000 1.0000 -0.0000
vn -0.0000 -0.0000 1.0000
vn -0.0000 -0.0000 -1.0000
vn 1.0000 -0.0000 -0.0000
vn -0.0000 -1.0000 -0.0000
vt 0.500000 0.500000
vt 0.550000 0.000000
vt 0.500000 0.000000
vt 1.000000 0.600000
vt 0.500000 0.550000
vt 1.000000 0.550000
vt 0.000000 0.500000
vt 0.500000 1.000000
vt 0.000000 1.000000
vt 0.000000 0.000000
vt 0.600000 0.500000
vt 0.600000 0.000000
vt 0.550000 0.500000
vt 0.500000 0.600000
vt 1.000000 0.500000
s 0
usemtl Painting2_38_Material
f 6/1/1 2/2/1 1/3/1
f 7/4/2 6/5/2 8/6/2
f 1/7/3 8/8/3 6/9/3
f 5/7/4 4/3/4 2/10/4
f 7/11/5 3/2/5 4/12/5
f 4/6/6 1/1/6 2/5/6
f 6/1/1 5/13/1 2/2/1
f 7/4/2 5/14/2 6/5/2
f 1/7/3 3/1/3 8/8/3
f 5/7/4 7/1/4 4/3/4
f 7/11/5 8/13/5 3/2/5
f 4/6/6 3/15/6 1/1/6
