# Blender 4.4.1
# www.blender.org
mtllib whiteBoard_87.mtl
o whiteBoard_87
v -1.100000 0.100000 -0.100000
v -1.000000 0.100000 -0.100000
v -1.000000 0.100000 0.000000
v -1.100000 -0.000000 0.000000
v -1.100000 0.100000 0.000000
v -1.000000 -0.000000 0.000000
v 1.100000 -0.000000 0.000000
v 1.100000 0.100000 0.000000
v 1.000000 0.100000 -0.100000
v 1.100000 0.100000 -0.100000
v 1.000000 0.100000 0.000000
v 1.000000 -0.000000 0.000000
v -1.200000 -0.000000 -0.100000
v -1.200000 0.100000 -0.200000
v -1.200000 0.100000 -0.100000
v -1.200000 -0.000000 -0.200000
v -0.900000 0.100000 -0.200000
v -0.900000 0.100000 -0.100000
v -0.900000 -0.000000 -0.100000
v -0.900000 -0.000000 -0.200000
v 0.900000 0.100000 -0.200000
v 0.900000 -0.000000 -0.200000
v 0.900000 0.100000 -0.100000
v 0.900000 -0.000000 -0.100000
v 1.000000 -0.000000 -0.100000
v 1.200000 -0.000000 -0.200000
v 1.200000 0.100000 -0.200000
v 1.200000 0.100000 -0.100000
v 1.200000 -0.000000 -0.100000
v -1.000000 -0.000000 -0.200000
v -1.100000 0.100000 -0.300000
v -1.000000 0.100000 -0.300000
v -1.000000 0.100000 -0.200000
v -1.100000 -0.000000 -0.200000
v -1.000000 -0.000000 -0.300000
v -1.100000 -0.000000 -0.300000
v 1.100000 -0.000000 -0.300000
v 1.100000 0.100000 -0.300000
v 1.000000 -0.000000 -0.200000
v 1.000000 -0.000000 -0.300000
v 1.000000 0.100000 -0.300000
v -1.100000 0.100000 -0.200000
v 1.100000 0.100000 -0.200000
v 1.000000 0.100000 -0.200000
v -1.100000 -0.000000 -0.100000
v -1.000000 -0.000000 -0.100000
v 1.100000 -0.000000 -0.100000
v 1.100000 -0.000000 -0.200000
v 1.100000 0.400000 -0.100000
v -1.100000 0.500000 -0.200000
v 1.100000 0.500000 -0.200000
v 1.000000 0.400000 -0.200000
v -0.900000 0.500000 -0.100000
v -1.100000 0.600000 -0.100000
v -0.900000 0.700000 -0.100000
v 1.500000 0.600000 -0.100000
v -1.100000 0.400000 0.000000
v -1.100000 0.400000 -0.100000
v 1.100000 0.400000 0.000000
v -1.000000 0.400000 -0.200000
v -1.000000 0.400000 -0.100000
v 1.000000 0.400000 -0.100000
v -1.100000 0.500000 0.100000
v -1.100000 0.500000 0.000000
v -1.100000 0.600000 0.000000
v -1.100000 0.600000 0.100000
v 1.100000 0.600000 0.100000
v 1.100000 0.500000 0.100000
v -1.500000 0.600000 -0.100000
v -1.500000 0.600000 0.000000
v -1.500000 0.500000 0.000000
v -1.500000 0.500000 -0.100000
v 1.100000 0.600000 0.000000
v 1.100000 0.500000 0.000000
v 1.100000 0.500000 -0.100000
v 1.100000 0.600000 -0.100000
v 1.500000 0.500000 0.000000
v 1.500000 0.500000 -0.100000
v 1.500000 0.600000 0.000000
v -1.600000 0.600000 -0.200000
v -1.600000 0.500000 -0.100000
v -1.600000 0.600000 -0.100000
v -1.600000 0.500000 -0.200000
v 1.600000 0.600000 -0.200000
v 1.600000 0.600000 -0.100000
v 1.600000 0.500000 -0.100000
v 1.600000 0.500000 -0.200000
v -1.600000 0.600000 0.000000
v 1.600000 0.600000 0.000000
v -1.700000 0.600000 -0.200000
v -1.700000 0.600000 -0.100000
v 1.700000 0.600000 -0.200000
v 1.700000 0.600000 -0.100000
v -1.500000 1.800000 0.000000
v -1.600000 1.800000 0.000000
v 1.600000 1.800000 -0.100000
v 1.600000 1.800000 0.000000
v 1.500000 1.800000 0.000000
v -1.600000 1.800000 -0.200000
v -1.700000 1.800000 -0.200000
v -1.700000 1.800000 -0.100000
v 1.700000 1.800000 -0.200000
v 1.700000 1.800000 -0.100000
v -1.600000 1.900000 -0.200000
v -1.600000 1.900000 -0.100000
v -1.600000 1.800000 -0.100000
v -1.500000 1.800000 -0.100000
v 1.500000 1.800000 -0.100000
v 1.600000 1.800000 -0.200000
v 1.600000 1.900000 -0.200000
v 1.600000 1.900000 -0.100000
v -0.900000 0.500000 0.000000
v -1.100000 0.700000 -0.100000
v -1.100000 0.700000 0.000000
v -0.900000 0.600000 0.000000
v -0.900000 0.700000 0.000000
vn -0.0000 -0.0000 1.0000
vn 1.0000 -0.0000 -0.0000
vn -0.0000 -0.0000 -1.0000
vn -0.0000 1.0000 -0.0000
vn -1.0000 -0.0000 -0.0000
vn -0.0000 -1.0000 -0.0000
vt 0.883721 0.604651
vt 0.860465 0.627907
vt 0.860465 0.604651
vt 0.837209 0.860465
vt 0.813953 0.581395
vt 0.837209 0.581395
vt 0.860465 0.534884
vt 0.883721 0.558140
vt 0.883721 0.534884
vt 0.627907 0.837209
vt 0.604651 0.860465
vt 0.604651 0.837209
vt 0.906977 0.279070
vt 0.883721 0.302326
vt 0.883721 0.279070
vt 0.790698 0.488372
vt 0.813953 0.418605
vt 0.790698 0.511628
vt 0.511628 0.837209
vt 0.046512 0.837209
vt 0.000000 0.813953
vt 0.813953 0.302326
vt 0.790698 0.023256
vt 0.813953 0.023256
vt 0.860465 0.744186
vt 0.883721 0.767442
vt 0.883721 0.744186
vt 0.767442 0.534884
vt 0.767442 0.511628
vt 0.883721 0.813953
vt 0.860465 0.837209
vt 0.860465 0.813953
vt 0.906977 0.093023
vt 0.883721 0.116279
vt 0.883721 0.093023
vt 0.883721 0.325581
vt 0.860465 0.348837
vt 0.860465 0.325581
vt 0.883721 0.511628
vt 0.860465 0.511628
vt 0.720930 0.860465
vt 0.744186 0.790698
vt 0.720930 0.790698
vt 0.813953 0.372093
vt 0.790698 0.302326
vt 0.906977 0.302326
vt 0.000000 0.767442
vt 0.046512 0.767442
vt 0.511628 0.744186
vt 0.837209 0.558140
vt 0.860465 0.279070
vt 0.837209 0.279070
vt 0.604651 0.906977
vt 0.511628 0.883721
vt 0.604651 0.883721
vt 0.790698 0.813953
vt 0.767442 0.813953
vt 0.534884 0.860465
vt 0.511628 0.860465
vt 0.162791 0.069767
vt 0.139535 0.093023
vt 0.023256 0.395349
vt 0.627907 0.860465
vt 0.534884 0.883721
vt 0.906977 0.232558
vt 0.883721 0.255814
vt 0.883721 0.232558
vt 0.651163 0.767442
vt 0.627907 0.790698
vt 0.627907 0.813953
vt 0.604651 0.813953
vt 0.790698 0.418605
vt 0.790698 0.395349
vt 0.046512 0.860465
vt 0.860465 0.558140
vt 0.883721 0.720930
vt 0.860465 0.720930
vt 0.860465 0.651163
vt 0.883721 0.674419
vt 0.883721 0.651163
vt 0.883721 0.790698
vt 0.860465 0.790698
vt 0.883721 0.162791
vt 0.860465 0.186047
vt 0.860465 0.162791
vt 0.511628 0.767442
vt 0.046512 0.790698
vt 0.860465 0.860465
vt 0.883721 0.883721
vt 0.883721 0.860465
vt 0.697674 0.790698
vt 0.744186 0.906977
vt 0.000000 0.930233
vt 0.000000 0.906977
vt 0.720930 0.883721
vt 0.744186 0.860465
vt 0.906977 0.372093
vt 0.883721 0.395349
vt 0.883721 0.372093
vt 0.744186 0.534884
vt 0.744186 0.511628
vt 0.883721 0.186047
vt 0.906977 0.162791
vt 0.837209 0.302326
vt 0.860465 0.395349
vt 0.860465 0.372093
vt 0.860465 0.767442
vt 0.837209 0.000000
vt 0.860465 0.000000
vt 0.860465 0.255814
vt 0.883721 0.418605
vt 0.906977 0.395349
vt 0.883721 0.697674
vt 0.860465 0.697674
vt 0.883721 0.139535
vt 0.906977 0.116279
vt 0.883721 0.488372
vt 0.860465 0.488372
vt 0.813953 0.000000
vt 0.883721 0.000000
vt 0.883721 0.069767
vt 0.906977 0.186047
vt 0.883721 0.209302
vt 0.883721 0.837209
vt 0.837209 0.837209
vt 0.860465 0.465116
vt 0.883721 0.465116
vt 0.651163 0.813953
vt 0.674419 0.837209
vt 0.674419 0.813953
vt 0.860465 0.674419
vt 0.837209 0.023256
vt 0.790698 0.837209
vt 0.767442 0.860465
vt 0.790698 0.860465
vt 0.023256 0.883721
vt 0.488372 0.883721
vt 0.860465 0.418605
vt 0.860465 0.232558
vt 0.511628 0.953488
vt 0.000000 0.976744
vt 0.000000 0.953488
vt 0.604651 0.790698
vt 0.906977 0.255814
vt 0.883721 0.581395
vt 0.860465 0.581395
vt 0.883721 0.441860
vt 0.860465 0.441860
vt 0.860465 0.093023
vt 0.906977 0.139535
vt 0.046512 0.953488
vt 0.860465 0.302326
vt 0.860465 0.209302
vt 0.627907 0.441860
vt 0.023256 0.720930
vt 0.162791 0.465116
vt 0.906977 0.348837
vt 0.883721 0.348837
vt 0.906977 0.209302
vt 0.906977 0.325581
vt 0.813953 0.813953
vt 0.790698 0.534884
vt 0.813953 0.534884
vt 0.813953 0.883721
vt 0.813953 0.860465
vt 0.790698 0.000000
vt 0.627907 0.883721
vt 0.883721 0.627907
vt 0.767442 0.488372
vt 0.813953 0.511628
vt 0.511628 0.813953
vt 0.000000 0.837209
vt 0.790698 0.372093
vt 0.000000 0.744186
vt 0.511628 0.906977
vt 0.767442 0.395349
vt 0.790698 0.116279
vt 0.767442 0.116279
vt 0.767442 0.093023
vt 0.651163 0.093023
vt 0.023256 0.418605
vt 0.767442 0.418605
vt 0.000000 0.116279
vt 0.000000 0.395349
vt 0.651163 0.000000
vt 0.627907 0.000000
vt 0.627907 0.069767
vt 0.023256 0.116279
vt 0.023256 0.093023
vt 0.162791 0.000000
vt 0.139535 0.000000
vt 0.744186 0.744186
vt 0.651163 0.744186
vt 0.627907 0.767442
vt 0.511628 0.790698
vt 0.860465 0.883721
vt 0.697674 0.860465
vt 0.744186 0.930233
vt 0.744186 0.883721
vt 0.906977 0.418605
vt 0.860465 0.069767
vt 0.906977 0.000000
vt 0.651163 0.837209
vt 0.651163 0.860465
vt 0.674419 0.860465
vt 0.674419 0.790698
vt 0.651163 0.790698
vt 0.697674 0.837209
vt 0.697674 0.813953
vt 0.767442 0.837209
vt 0.744186 0.837209
vt 0.813953 0.837209
vt 0.767442 0.883721
vt 0.790698 0.883721
vt 0.000000 0.860465
vt 0.000000 0.883721
vt 0.023256 0.906977
vt 0.488372 0.906977
vt 0.511628 0.976744
vt 0.604651 0.767442
vt 0.744186 0.813953
vt 0.511628 0.930233
vt 0.720930 0.441860
vt 0.720930 0.720930
vt 0.744186 0.720930
vt 0.000000 0.720930
vt 0.023256 0.441860
vt 0.116279 0.441860
vt 0.116279 0.465116
vt 0.162791 0.418605
vt 0.627907 0.418605
s 0
usemtl whiteBoard_87_Material
f 25/1/1 23/2/1 24/3/1
f 102/4/2 93/5/2 92/6/2
f 22/7/3 44/8/3 39/9/3
f 103/10/4 109/11/4 96/12/4
f 94/13/4 106/14/4 95/15/4
f 49/16/2 43/17/2 75/18/2
f 74/19/1 112/20/1 57/21/1
f 107/22/2 70/23/2 69/24/2
f 36/25/3 32/26/3 35/27/3
f 73/28/5 75/18/5 74/29/5
f 37/30/2 43/31/2 48/32/2
f 43/33/4 41/34/4 44/35/4
f 7/36/1 11/37/1 12/38/1
f 19/39/1 2/7/1 46/40/1
f 62/41/5 44/42/5 9/43/5
f 60/44/2 2/45/2 33/22/2
f 97/46/4 108/36/4 98/14/4
f 64/47/6 112/48/6 68/49/6
f 101/50/5 90/51/5 91/52/5
f 65/53/1 71/54/1 64/55/1
f 106/56/5 88/28/5 95/57/5
f 82/54/6 70/58/6 88/59/6
f 60/60/3 50/61/3 99/62/3
f 65/63/4 69/64/4 70/58/4
f 86/65/1 56/66/1 78/67/1
f 72/68/6 83/69/6 50/42/6
f 84/12/6 93/70/6 85/71/6
f 116/72/2 115/73/2 53/44/2
f 115/74/3 74/19/3 112/20/3
f 106/31/1 91/50/1 82/75/1
f 35/76/2 33/25/2 30/77/2
f 48/78/3 27/79/3 26/80/3
f 42/32/5 36/81/5 34/82/5
f 46/83/2 3/84/2 6/85/2
f 74/86/4 53/87/4 112/48/4
f 40/88/3 38/89/3 37/90/3
f 61/41/1 1/91/1 2/43/1
f 111/92/4 104/93/4 105/94/4
f 56/95/6 89/96/6 79/41/6
f 109/97/2 111/98/2 96/99/2
f 74/29/2 67/100/2 68/101/2
f 82/102/5 83/103/5 81/83/5
f 96/6/2 89/22/2 85/104/2
f 1/99/4 14/105/4 15/106/4
f 33/26/4 31/82/4 42/107/4
f 97/51/1 79/108/1 89/109/1
f 47/66/2 8/51/2 7/110/2
f 114/111/5 54/112/5 65/98/5
f 29/113/1 10/77/1 47/114/1
f 44/115/5 40/116/5 39/34/5
f 18/117/4 33/40/4 2/118/4
f 78/108/2 79/24/2 77/119/2
f 50/33/5 1/120/5 58/121/5
f 72/122/1 82/123/1 81/102/1
f 115/124/1 114/4/1 65/125/1
f 30/126/3 17/117/3 20/127/3
f 45/128/6 30/129/6 46/130/6
f 28/79/4 43/114/4 10/131/4
f 98/22/5 56/132/5 79/24/5
f 47/133/6 39/134/6 48/135/6
f 61/136/6 62/137/6 59/59/6
f 15/138/5 16/98/5 13/105/5
f 6/67/1 5/110/1 4/139/1
f 68/140/1 66/141/1 63/142/1
f 87/70/6 78/143/6 74/86/6
f 103/57/1 85/100/1 93/28/1
f 90/15/6 82/144/6 91/66/6
f 23/3/5 22/145/5 24/146/5
f 20/147/2 18/126/2 19/148/2
f 49/83/1 9/149/1 10/35/1
f 66/83/5 64/150/5 63/115/5
f 73/140/4 115/151/4 66/93/4
f 11/38/5 25/14/5 12/152/5
f 5/139/5 45/123/5 4/153/5
f 76/154/1 107/155/1 55/156/1
f 105/99/5 99/157/5 106/158/5
f 87/159/2 85/67/2 86/123/2
f 106/160/4 100/158/4 101/36/4
f 94/161/1 88/162/1 70/163/1
f 16/37/3 42/99/3 34/158/3
f 116/88/4 113/164/4 114/165/4
f 45/111/1 15/148/1 13/138/1
f 8/15/4 9/152/4 11/51/4
f 70/23/5 72/119/5 71/166/5
f 9/8/4 21/146/4 23/75/4
f 79/41/4 76/167/4 73/63/4
f 77/12/1 73/59/1 74/19/1
f 3/102/4 1/153/4 5/84/4
f 26/168/2 28/78/2 29/2/2
f 25/1/1 9/168/1 23/2/1
f 102/4/2 103/165/2 93/5/2
f 22/7/3 21/75/3 44/8/3
f 103/10/4 102/63/4 109/11/4
f 94/13/4 107/46/4 106/14/4
f 74/29/2 59/169/2 49/16/2
f 49/16/2 10/72/2 43/17/2
f 43/17/2 51/170/2 75/18/2
f 75/18/2 74/29/2 49/16/2
f 57/21/1 59/171/1 74/19/1
f 112/20/1 64/172/1 57/21/1
f 107/22/2 94/45/2 70/23/2
f 36/25/3 31/107/3 32/26/3
f 73/28/5 76/162/5 75/18/5
f 37/30/2 38/124/2 43/31/2
f 43/33/4 38/116/4 41/34/4
f 7/36/1 8/158/1 11/37/1
f 19/39/1 18/9/1 2/7/1
f 62/41/5 52/96/5 44/42/5
f 60/44/2 61/173/2 2/45/2
f 97/46/4 96/160/4 108/36/4
f 68/49/6 63/174/6 64/47/6
f 112/48/6 74/86/6 68/49/6
f 101/50/5 100/75/5 90/51/5
f 65/53/1 70/175/1 71/54/1
f 106/56/5 82/162/5 88/28/5
f 82/54/6 69/64/6 70/58/6
f 109/176/3 102/73/3 92/177/3
f 84/178/3 87/179/3 51/180/3
f 109/176/3 92/177/3 84/178/3
f 104/181/3 110/182/3 109/176/3
f 90/183/3 100/184/3 99/62/3
f 99/62/3 104/181/3 109/176/3
f 109/176/3 84/178/3 51/180/3
f 51/180/3 43/185/3 44/186/3
f 51/180/3 44/186/3 52/187/3
f 99/62/3 109/176/3 51/180/3
f 80/188/3 90/183/3 99/62/3
f 50/61/3 83/189/3 80/188/3
f 33/190/3 42/191/3 50/61/3
f 51/180/3 52/187/3 60/60/3
f 60/60/3 33/190/3 50/61/3
f 50/61/3 80/188/3 99/62/3
f 99/62/3 51/180/3 60/60/3
f 65/63/4 54/167/4 69/64/4
f 86/65/1 85/144/1 56/66/1
f 50/42/6 64/192/6 71/193/6
f 72/68/6 81/194/6 83/69/6
f 50/42/6 71/193/6 72/68/6
f 84/12/6 92/10/6 93/70/6
f 53/44/2 55/17/2 116/72/2
f 115/73/2 112/173/2 53/44/2
f 115/74/3 73/59/3 74/19/3
f 106/31/1 101/125/1 91/50/1
f 35/76/2 32/27/2 33/25/2
f 48/78/3 43/131/3 27/79/3
f 42/32/5 31/30/5 36/81/5
f 46/83/2 2/102/2 3/84/2
f 74/86/4 75/195/4 53/87/4
f 40/88/3 41/196/3 38/89/3
f 61/41/1 58/197/1 1/91/1
f 111/92/4 110/198/4 104/93/4
f 56/95/6 85/199/6 89/96/6
f 109/97/2 110/112/2 111/98/2
f 74/29/2 73/28/2 67/100/2
f 82/102/5 80/122/5 83/103/5
f 96/6/2 97/5/2 89/22/2
f 1/99/4 42/98/4 14/105/4
f 33/26/4 32/81/4 31/82/4
f 97/51/1 98/52/1 79/108/1
f 47/66/2 10/15/2 8/51/2
f 114/111/5 113/200/5 54/112/5
f 29/113/1 28/76/1 10/77/1
f 44/115/5 41/150/5 40/116/5
f 18/117/4 17/39/4 33/40/4
f 78/108/2 56/132/2 79/24/2
f 57/201/5 64/149/5 50/33/5
f 50/33/5 42/202/5 1/120/5
f 58/121/5 57/201/5 50/33/5
f 72/122/1 69/159/1 82/123/1
f 115/124/1 116/90/1 114/4/1
f 30/126/3 33/118/3 17/117/3
f 45/128/6 13/70/6 16/10/6
f 34/203/6 36/204/6 35/205/6
f 45/128/6 16/10/6 34/203/6
f 6/206/6 4/207/6 45/128/6
f 20/208/6 19/209/6 46/130/6
f 46/130/6 6/206/6 45/128/6
f 45/128/6 34/203/6 35/205/6
f 30/129/6 20/208/6 46/130/6
f 45/128/6 35/205/6 30/129/6
f 28/79/4 27/113/4 43/114/4
f 98/22/5 108/104/5 56/132/5
f 47/133/6 7/56/6 12/57/6
f 25/210/6 24/211/6 22/96/6
f 47/133/6 12/57/6 25/210/6
f 26/165/6 29/212/6 47/133/6
f 40/213/6 37/214/6 48/135/6
f 48/135/6 26/165/6 47/133/6
f 47/133/6 25/210/6 22/96/6
f 39/134/6 40/213/6 48/135/6
f 47/133/6 22/96/6 39/134/6
f 59/59/6 57/215/6 58/216/6
f 61/136/6 60/217/6 52/218/6
f 59/59/6 58/216/6 61/136/6
f 62/137/6 49/54/6 59/59/6
f 61/136/6 52/218/6 62/137/6
f 15/138/5 14/111/5 16/98/5
f 6/67/1 3/66/1 5/110/1
f 68/140/1 67/219/1 66/141/1
f 75/195/6 51/171/6 87/70/6
f 87/70/6 86/69/6 78/143/6
f 78/143/6 77/220/6 74/86/6
f 74/86/6 75/195/6 87/70/6
f 103/57/1 96/221/1 85/100/1
f 90/15/6 80/13/6 82/144/6
f 23/3/5 21/1/5 22/145/5
f 20/147/2 17/127/2 18/126/2
f 49/83/1 62/85/1 9/149/1
f 66/83/5 65/103/5 64/150/5
f 66/93/4 67/222/4 73/140/4
f 115/151/4 65/142/4 66/93/4
f 11/38/5 9/36/5 25/14/5
f 5/139/5 1/67/5 45/123/5
f 76/154/1 56/223/1 108/224/1
f 108/224/1 96/225/1 111/192/1
f 111/192/1 105/174/1 106/226/1
f 107/155/1 69/227/1 54/228/1
f 111/192/1 106/226/1 107/155/1
f 108/224/1 111/192/1 107/155/1
f 107/155/1 54/228/1 113/229/1
f 55/156/1 53/230/1 75/231/1
f 107/155/1 113/229/1 55/156/1
f 76/154/1 108/224/1 107/155/1
f 55/156/1 75/231/1 76/154/1
f 105/99/5 104/97/5 99/157/5
f 87/159/2 84/65/2 85/67/2
f 106/160/4 99/157/4 100/158/4
f 94/161/1 95/56/1 88/162/1
f 16/37/3 14/106/3 42/99/3
f 116/88/4 55/196/4 113/164/4
f 45/111/1 1/147/1 15/148/1
f 8/15/4 10/14/4 9/152/4
f 70/23/5 69/24/5 72/119/5
f 9/8/4 44/145/4 21/146/4
f 79/41/4 56/95/4 76/167/4
f 77/12/1 79/11/1 73/59/1
f 3/102/4 2/123/4 1/153/4
f 26/168/2 27/80/2 28/78/2
