# Blender 4.4.1
# www.blender.org
mtllib Painting1_37.mtl
o Painting1_37
v -0.500000 -0.000000 -0.500000
v -0.500000 -0.000000 -0.400000
v 0.500000 -0.000000 -0.400000
v 0.500000 -0.000000 -0.500000
v -0.500000 1.000000 -0.400000
v -0.500000 1.000000 -0.500000
v 0.500000 1.000000 -0.500000
v 0.500000 1.000000 -0.400000
vn -1.0000 -0.0000 -0.0000
vn -0.0000 -0.0000 -1.0000
vn -0.0000 -0.0000 1.0000
vn -0.0000 1.0000 -0.0000
vn -0.0000 -1.0000 -0.0000
vn 1.0000 -0.0000 -0.0000
vt 0.500000 0.500000
vt 0.550000 -0.000000
vt 0.500000 -0.000000
vt 0.000000 0.500000
vt 0.000000 -0.000000
vt 0.500000 1.000000
vt 0.000000 1.000000
vt 1.000000 0.550000
vt 0.500000 0.600000
vt 0.500000 0.550000
vt 0.600000 0.500000
vt 0.600000 -0.000000
vt 0.550000 0.500000
vt 1.000000 0.600000
vt 1.000000 0.500000
s 0
usemtl Painting1_37_Material
f 5/1/1 1/2/1 2/3/1
f 6/4/2 4/3/2 1/5/2
f 2/4/3 8/6/3 5/7/3
f 8/8/4 6/9/4 5/10/4
f 4/8/5 2/1/5 1/10/5
f 7/11/6 3/2/6 4/12/6
f 5/1/1 6/13/1 1/2/1
f 6/4/2 7/1/2 4/3/2
f 2/4/3 3/1/3 8/6/3
f 8/8/4 7/14/4 6/9/4
f 4/8/5 3/15/5 2/1/5
f 7/11/6 8/13/6 3/2/6
