# Blender 4.4.1
# www.blender.org
mtllib Poster_40.mtl
o Poster_40
v -0.500000 -0.000000 -0.500000
v -0.500000 -0.000000 -0.400000
v 0.500000 -0.000000 -0.500000
v 0.500000 -0.000000 -0.400000
v -0.500000 1.000000 -0.500000
v -0.500000 1.000000 -0.400000
v 0.500000 1.000000 -0.500000
v 0.500000 1.000000 -0.400000
vn -1.0000 -0.0000 -0.0000
vn -0.0000 -0.0000 1.0000
vn -0.0000 -1.0000 -0.0000
vn -0.0000 1.0000 -0.0000
vn 1.0000 -0.0000 -0.0000
vn -0.0000 -0.0000 -1.0000
vt 0.500000 0.500000
vt 0.550000 0.000000
vt 0.500000 0.000000
vt 0.000000 1.000000
vt 0.000000 0.500000
vt 1.000000 0.500000
vt 0.500000 0.550000
vt 1.000000 0.550000
vt 0.500000 0.600000
vt 0.600000 0.500000
vt 0.600000 0.000000
vt 0.550000 0.500000
vt 0.500000 1.000000
vt 1.000000 0.600000
vt 0.000000 0.000000
s 0
usemtl Poster_40_Material
f 6/1/1 1/2/1 2/3/1
f 4/1/2 6/4/2 2/5/2
f 4/6/3 1/7/3 3/8/3
f 8/8/4 5/9/4 6/7/4
f 7/10/5 4/2/5 3/11/5
f 3/3/6 5/5/6 7/1/6
f 6/1/1 5/12/1 1/2/1
f 4/1/2 8/13/2 6/4/2
f 4/6/3 2/1/3 1/7/3
f 8/8/4 7/14/4 5/9/4
f 7/10/5 8/12/5 4/2/5
f 3/3/6 1/15/6 5/5/6
